<svg width="37" height="29" viewBox="0 0 37 29" fill="none" xmlns="http://www.w3.org/2000/svg">
<g clip-path="url(#clip0_155_732)">
<path d="M0 12.1667C0.173746 11.8449 0.178089 11.4792 0.279441 11.1375C0.736542 9.58855 1.70628 8.23211 3.0363 7.28132C4.36633 6.33054 5.98128 5.83928 7.62746 5.88473C11.0423 5.97687 14.0575 8.50724 14.6497 11.801C14.691 12.032 14.7699 12.0845 14.99 12.0845C21.0194 12.0798 27.0494 12.0781 33.0798 12.0795C33.1139 12.0795 33.1472 12.0739 33.1855 12.0703C33.2195 11.9406 33.0994 11.9122 33.0407 11.8577C32.4978 11.3743 31.9447 10.9015 31.4039 10.4153C30.9015 9.96309 30.8515 9.3351 31.2671 8.87864C31.6826 8.42218 32.3378 8.38249 32.8417 8.81556C34.0514 9.8596 35.2589 10.9058 36.4483 11.9711C37.2005 12.6444 37.1846 13.6622 36.4273 14.3328C35.2497 15.3761 34.0649 16.4119 32.8728 17.4401C32.3588 17.8859 31.6783 17.8653 31.2664 17.4089C30.8457 16.9411 30.9095 16.2989 31.4263 15.8439C32.0229 15.3187 32.623 14.7963 33.229 14.2661C33.1196 14.1733 33.0082 14.2165 32.909 14.2165C26.9635 14.2137 21.018 14.2111 15.0725 14.2087C14.8046 14.2087 14.6982 14.2477 14.6381 14.5475C14.3333 16.0578 13.5466 17.4344 12.3914 18.4789C11.2362 19.5234 9.77218 20.1819 8.21023 20.3596C4.30094 20.7962 0.69788 18.0914 0.0803566 14.2541C0.0702214 14.1903 0.100628 14.1081 0.00434348 14.079L0 12.1667ZM12.4518 14.2137C11.3384 14.2137 10.2445 14.2137 9.14991 14.2137C8.42162 14.2137 7.93658 13.7884 7.93296 13.1505C7.92934 12.5126 8.40135 12.0838 9.13471 12.0809C10.1207 12.0774 11.1082 12.0661 12.0942 12.088C12.4431 12.0958 12.4808 12.0115 12.3838 11.6996C11.5874 9.10191 8.87698 7.53762 6.20853 8.15568C4.90941 8.45875 3.77684 9.23465 3.04092 10.3258C2.305 11.4169 2.02092 12.7413 2.2464 14.0301C2.64167 16.25 4.42691 17.9284 6.82678 18.2254C8.86106 18.4742 10.9627 17.4783 12.0269 15.4569C12.2296 15.0706 12.4033 14.6723 12.4518 14.2137V14.2137Z" fill="url(#paint0_linear_155_732)"/>
<path d="M28.6744 5.66073H22.935C22.211 5.66073 21.734 5.23546 21.7383 4.58833C21.7427 3.96106 22.2154 3.54004 22.9212 3.54004H34.5043C35.2102 3.54004 35.6807 3.96531 35.6836 4.59259C35.6865 5.21986 35.2152 5.66002 34.5188 5.66073C32.5704 5.66215 30.6223 5.66215 28.6744 5.66073Z" fill="#28A41D"/>
<path d="M12.7167 26.9465C10.7678 26.9465 8.8192 26.9465 6.87083 26.9465C6.30978 26.9465 5.85225 26.5673 5.78057 26.0619C5.70239 25.507 6.01079 25.0229 6.55519 24.8676C6.68279 24.837 6.81409 24.8236 6.9454 24.8279C10.8064 24.8279 14.6675 24.8279 18.5285 24.8279C19.2177 24.8279 19.7121 25.2745 19.7114 25.8911C19.7107 26.5078 19.2162 26.9465 18.5263 26.9465C16.59 26.9465 14.6535 26.9465 12.7167 26.9465Z" fill="#28A41D"/>
<path d="M21.8863 23.4107H17.4507C16.7326 23.4107 16.2439 22.9684 16.2541 22.3327C16.2635 21.7153 16.7492 21.29 17.45 21.29C20.4312 21.29 23.4124 21.29 26.3936 21.29C27.0785 21.29 27.5794 21.7415 27.5794 22.3532C27.5794 22.9649 27.0799 23.4164 26.3943 23.4164L21.8863 23.4107Z" fill="#28A41D"/>
<path d="M19.5785 0.00461504C21.0578 0.00461504 22.5366 0.00461504 24.0149 0.00461504C24.7193 0.00461504 25.2 0.429887 25.2072 1.05007C25.2159 1.68798 24.7316 2.1253 24.0091 2.1253C21.0269 2.1253 18.0455 2.1253 15.0648 2.1253C14.3821 2.1253 13.8797 1.67097 13.8818 1.06212C13.884 0.453277 14.3886 0.00532382 15.0706 0.00461504C16.5715 0.00366999 18.0742 0.00366999 19.5785 0.00461504Z" fill="#28A41D"/>
<path d="M28.5431 2.1254C28.2535 2.1254 27.9639 2.13107 27.6779 2.1254C27.3933 2.11803 27.1228 2.00235 26.9239 1.80293C26.7249 1.60351 26.6131 1.33603 26.6123 1.05726C26.6169 0.77785 26.7331 0.51133 26.9362 0.31493C27.1392 0.11853 27.4128 0.00791395 27.6982 0.00683608C28.2774 -0.000251782 28.8515 -0.00166935 29.4277 0.00683608C29.5686 0.00783666 29.7078 0.0362447 29.8374 0.0904083C29.9669 0.144572 30.0842 0.22341 30.1823 0.322339C30.2805 0.421268 30.3576 0.538314 30.4091 0.666671C30.4606 0.795027 30.4856 0.932133 30.4825 1.07002C30.4838 1.20871 30.457 1.34627 30.4035 1.47469C30.3499 1.6031 30.2708 1.7198 30.1708 1.81797C30.0707 1.91615 29.9517 1.99383 29.8206 2.04649C29.6896 2.09915 29.5491 2.12573 29.4074 2.12469C29.1193 2.12965 28.8312 2.1254 28.5431 2.1254Z" fill="#28A41D"/>
<path d="M12.8821 23.4102C12.6063 23.4102 12.3297 23.4145 12.0532 23.4102C11.9121 23.4109 11.7724 23.3842 11.6419 23.3317C11.5115 23.2793 11.3929 23.2021 11.293 23.1046C11.1932 23.0071 11.114 22.8912 11.0601 22.7636C11.0062 22.636 10.9785 22.4993 10.9788 22.3612C10.9754 22.223 11 22.0856 11.0512 21.9568C11.1024 21.828 11.1793 21.7104 11.2772 21.6109C11.3752 21.5114 11.4924 21.432 11.622 21.3772C11.7516 21.3224 11.891 21.2933 12.0322 21.2916C12.6207 21.2824 13.2093 21.281 13.7979 21.2916C14.0764 21.3019 14.3404 21.4162 14.5356 21.611C14.7308 21.8058 14.8424 22.0664 14.8476 22.3392C14.8475 22.6176 14.7368 22.885 14.5388 23.0848C14.3408 23.2845 14.0712 23.401 13.787 23.4095C13.483 23.4159 13.1825 23.4102 12.8821 23.4102Z" fill="#28A41D"/>
<path d="M17.7519 18.3188C17.4869 18.3188 17.2227 18.3188 16.9555 18.3188C16.3286 18.3117 15.8385 17.8567 15.8262 17.2727C15.8257 17.1315 15.8537 16.9916 15.9087 16.8611C15.9636 16.7305 16.0444 16.6119 16.1463 16.5121C16.2482 16.4122 16.3693 16.3331 16.5026 16.2792C16.6359 16.2253 16.7788 16.1978 16.923 16.1981C17.4886 16.1892 18.0538 16.1892 18.6184 16.1981C18.7627 16.1975 18.9058 16.225 19.0391 16.279C19.1724 16.3331 19.2934 16.4126 19.395 16.513C19.4966 16.6134 19.5767 16.7326 19.6307 16.8636C19.6847 16.9947 19.7114 17.1349 19.7094 17.2762C19.7011 17.5552 19.5822 17.8201 19.3779 18.0147C19.1736 18.2093 18.8999 18.3184 18.6148 18.3188C18.3289 18.3231 18.04 18.3188 17.7519 18.3188Z" fill="#28A41D"/>
<path d="M25.1197 28.997C24.8302 28.997 24.5406 29.0034 24.251 28.997C23.9664 28.9876 23.6966 28.8703 23.4987 28.6698C23.3008 28.4693 23.1903 28.2013 23.1904 27.9225C23.1962 27.6484 23.3093 27.387 23.5062 27.1922C23.7032 26.9974 23.969 26.8841 24.2488 26.8756C24.8372 26.8657 25.4262 26.8657 26.016 26.8756C26.301 26.8832 26.5717 26.9998 26.7701 27.2003C26.9684 27.4009 27.0787 27.6695 27.0773 27.9487C27.07 28.2218 26.9568 28.4819 26.7608 28.6763C26.5648 28.8708 26.3006 28.9849 26.0218 28.9956C25.7213 29.002 25.4202 28.997 25.1197 28.997Z" fill="#28A41D"/>
<path d="M16.3476 5.59044C16.6241 5.59044 16.9007 5.5869 17.1772 5.59044C17.4618 5.59222 17.7345 5.70258 17.9372 5.89807C18.14 6.09356 18.2569 6.35876 18.2632 6.63732C18.2636 6.77867 18.2355 6.91872 18.1804 7.04936C18.1252 7.18 18.0442 7.29864 17.9419 7.39842C17.8397 7.49821 17.7182 7.57716 17.5846 7.63072C17.451 7.68427 17.3079 7.71136 17.1635 7.71042C16.5988 7.7168 16.0334 7.71751 15.4687 7.71042C15.1845 7.70722 14.9126 7.5963 14.7101 7.40096C14.5076 7.20562 14.3903 6.94106 14.3828 6.66284C14.3829 6.52171 14.4115 6.38199 14.4668 6.25168C14.5222 6.12138 14.6033 6.00305 14.7054 5.90349C14.8076 5.80393 14.9288 5.72509 15.0622 5.67149C15.1955 5.61789 15.3383 5.59059 15.4825 5.59115C15.7706 5.58761 16.0587 5.59044 16.3476 5.59044Z" fill="#28A41D"/>
</g>
<defs>
<linearGradient id="paint0_linear_155_732" x1="18.502" y1="5.88184" x2="18.502" y2="20.4058" gradientUnits="userSpaceOnUse">
<stop stop-color="#28A41D"/>
<stop offset="1" stop-color="#0C9100"/>
</linearGradient>
<clipPath id="clip0_155_732">
<rect width="37" height="29" fill="white"/>
</clipPath>
</defs>
</svg>
