<svg width="24" height="19" viewBox="0 0 24 19" fill="none" xmlns="http://www.w3.org/2000/svg">
    <g clip-path="url(#sgz49oxuja)" fill="#fff">
        <path d="M9.5 19H1.763C.683 19 0 18.317 0 17.238V9.54c0-.579.421-1.018.972-1.022a.98.98 0 0 1 .99.942c.01.314.002.628.002.942 0 2.143 0 4.285-.004 6.428 0 .17.04.21.21.21 4.885-.006 9.77-.006 14.655 0 .168 0 .212-.036.211-.209-.006-2.43-.008-4.858-.004-7.287 0-.573.41-1.011.95-1.026.564-.015 1.011.42 1.014 1 .004.97 0 1.939 0 2.907v4.811c0 1.08-.684 1.764-1.762 1.764H9.5z"/>
        <path d="M8.517 11.664V1.048c0-.616.43-1.06 1.008-1.049a.985.985 0 0 1 .954.916c.005.082.003.164.003.246v10.507c.08.01.104-.06.142-.097.63-.625 1.25-1.258 1.885-1.878.54-.528 1.415-.311 1.63.399.12.394.011.737-.28 1.026-.638.636-1.275 1.273-1.91 1.91l-1.68 1.68c-.492.492-1.049.492-1.541 0a2963 2963 0 0 1-3.589-3.59c-.557-.56-.37-1.438.354-1.665.394-.124.738-.022 1.029.27l1.822 1.825a.885.885 0 0 1 .105.168l.068-.052z"/>
    </g>
    <defs>
        <clipPath id="sgz49oxuja">
            <path fill="#fff" d="M0 0h23.953v19H0z"/>
        </clipPath>
    </defs>
</svg>
