<svg width="14" height="11" viewBox="0 0 14 11" fill="none" xmlns="http://www.w3.org/2000/svg">
<path d="M12.8064 0.0971112C12.8064 0.0971112 14.1015 -0.379031 13.9936 0.777316C13.9576 1.25346 13.6339 2.91996 13.382 4.72252L12.5186 10.0621C12.5186 10.0621 12.4467 10.8444 11.7991 10.9804C11.1516 11.1164 10.1803 10.5043 10.0004 10.3682C9.85647 10.2662 7.30227 8.73572 6.40287 7.9875C6.15104 7.78344 5.86324 7.37531 6.43884 6.89916L10.2162 3.49816C10.6479 3.09002 11.0796 2.13774 9.28087 3.29409L4.24437 6.52507C4.24437 6.52507 3.66877 6.86516 2.58954 6.55908L0.25114 5.87887C0.25114 5.87887 -0.612264 5.36872 0.862717 4.85854C4.46024 3.26005 8.88517 1.62756 12.8064 0.0971112Z" fill="#1AAEF4"/>
</svg>
