<svg width="36" height="23" viewBox="0 0 36 23" fill="none" xmlns="http://www.w3.org/2000/svg">
    <g clip-path="url(#af2lqsza8a)" fill="#12BF00">
        <path d="M35.65 13.338c-.131.046-.12.166-.154.259-1.049 2.848-2.097 5.697-3.145 8.548-.247.671-.527.856-1.31.856h-2.895c-.818 0-1.203-.348-1.203-1.09 0-2.544-.006-5.089.006-7.633 0-.263-.076-.325-.359-.324-1.677.013-3.354.007-5.03.007-.887 0-1.273-.355-1.273-1.169V1.186c0-.836.375-1.177 1.296-1.177 4.26 0 8.521.006 12.78-.006.64 0 1.073.203 1.286.757l.001 12.578zm-2.067-5.906c0-1.752-.005-3.504 0-5.254 0-.213-.023-.3-.305-.3-3.537.012-7.075.012-10.612 0-.254 0-.322.05-.322.288.01 3.202.01 6.404 0 9.605 0 .235.05.314.333.314 1.722-.014 3.445-.004 5.168-.01.339 0 .634.07.872.297.239.226.288.532.288.842 0 2.544 0 5.089-.006 7.634 0 .217.055.292.301.276.31-.022.62-.022.93 0 .258.02.35-.078.425-.289.946-2.585 1.896-5.169 2.849-7.751.055-.147.082-.302.08-.458-.003-1.732-.004-3.463-.001-5.194zM.36 6.957v-5.82C.36.36.742.008 1.59.008H14.48c.85 0 1.242.356 1.242 1.128v11.67a2.21 2.21 0 0 1-.153.764l-3.15 8.58c-.238.65-.534.848-1.286.85H8.203c-.81 0-1.201-.357-1.202-1.099 0-2.534-.008-5.069.008-7.607 0-.298-.1-.348-.398-.346-1.665.013-3.331.007-4.996.007-.87 0-1.255-.354-1.255-1.149V6.958zm13.298.477c0-1.742-.006-3.484.006-5.226 0-.245-.04-.332-.345-.332a1551.7 1551.7 0 0 1-10.579 0c-.259 0-.318.055-.317.288.01 3.203.01 6.405 0 9.606 0 .276.095.314.365.314 1.728-.012 3.446-.009 5.169-.005.69 0 1.092.358 1.112.98.01.334 0 .668 0 1.001 0 2.243.007 4.485-.009 6.728 0 .286.087.36.385.336.287-.021.576-.021.863 0 .233.016.335-.051.41-.26.949-2.606 1.905-5.209 2.868-7.81a1.3 1.3 0 0 0 .075-.458c-.007-1.72-.009-3.441-.006-5.162h.003z"/>
    </g>
    <defs>
        <clipPath id="af2lqsza8a">
            <path fill="#fff" transform="translate(.36)" d="M0 0h35.291v23H0z"/>
        </clipPath>
    </defs>
</svg>
