<svg width="36" height="23" viewBox="0 0 36 23" fill="none" xmlns="http://www.w3.org/2000/svg">
    <g clip-path="url(#3qavaxb03a)" fill="#5E24D9">
        <path d="M35.475 13.338c-.13.046-.118.166-.152.259-1.039 2.848-2.077 5.697-3.115 8.548-.244.671-.522.856-1.298.856h-2.866c-.81 0-1.191-.348-1.192-1.09 0-2.544-.006-5.089.006-7.633 0-.263-.076-.325-.355-.324-1.661.013-3.322.007-4.982.007-.878 0-1.26-.355-1.26-1.169V1.186c0-.836.37-1.177 1.282-1.177 4.22 0 8.44.006 12.658-.006.633 0 1.062.203 1.273.757l.001 12.578zm-2.047-5.906c0-1.752-.004-3.504 0-5.254 0-.213-.022-.3-.302-.3-3.503.012-7.006.012-10.51 0-.25 0-.319.05-.319.288.01 3.202.01 6.404 0 9.605 0 .235.05.314.33.314 1.706-.014 3.412-.004 5.119-.01.335 0 .627.07.863.297.236.226.285.532.285.842 0 2.544 0 5.089-.006 7.634 0 .217.055.292.299.276.306-.022.614-.022.92 0 .256.02.346-.078.422-.289.936-2.585 1.877-5.169 2.821-7.751.054-.147.081-.302.08-.458-.004-1.732-.004-3.463-.002-5.194zM.524 6.957v-5.82c0-.778.38-1.13 1.22-1.13H14.51c.84 0 1.23.356 1.23 1.128v11.67c-.006.261-.057.519-.152.764l-3.119 8.58c-.237.65-.53.848-1.274.85H8.293c-.804 0-1.19-.357-1.191-1.099 0-2.534-.008-5.069.008-7.607 0-.298-.1-.348-.395-.346-1.648.013-3.298.007-4.947.007-.861 0-1.243-.354-1.243-1.149V6.958zm13.171.477c0-1.742-.006-3.484.006-5.226 0-.245-.04-.332-.342-.332-3.493.012-6.985.012-10.477 0-.256 0-.315.055-.314.288.01 3.203.01 6.405 0 9.606 0 .276.094.314.362.314 1.71-.012 3.413-.009 5.119-.005.684 0 1.082.358 1.101.98.01.334 0 .668 0 1.001 0 2.243.007 4.485-.008 6.728 0 .286.085.36.38.336.285-.021.571-.021.856 0 .23.016.33-.051.406-.26.939-2.606 1.886-5.209 2.84-7.81.052-.147.077-.302.074-.458-.006-1.72-.008-3.441-.006-5.162h.003z"/>
    </g>
    <defs>
        <clipPath id="3qavaxb03a">
            <path fill="#fff" transform="translate(.524)" d="M0 0h34.951v23H0z"/>
        </clipPath>
    </defs>
</svg>
