<svg width="36" height="23" viewBox="0 0 36 23" fill="none" xmlns="http://www.w3.org/2000/svg">
    <g clip-path="url(#l23u1v3l1a)" fill="#F9C40A">
        <path d="M35.103 13.338c-.131.046-.12.166-.154.259-1.046 2.848-2.092 5.697-3.137 8.548-.247.671-.527.856-1.308.856h-2.887c-.816 0-1.2-.348-1.2-1.09 0-2.544-.007-5.089.005-7.633 0-.263-.075-.325-.357-.324-1.673.013-3.346.007-5.018.007-.885 0-1.27-.355-1.27-1.169V1.186c0-.836.374-1.177 1.292-1.177 4.25 0 8.501.006 12.75-.006.638 0 1.07.203 1.283.757v12.578zM33.04 7.432c0-1.752-.004-3.504 0-5.254 0-.213-.022-.3-.304-.3-3.528.012-7.057.012-10.586 0-.253 0-.321.05-.321.288.01 3.202.01 6.404 0 9.605 0 .235.05.314.332.314 1.718-.014 3.437-.004 5.156-.01.337 0 .632.07.87.297.237.226.287.532.287.842 0 2.544 0 5.089-.006 7.634 0 .217.055.292.3.276.309-.022.619-.022.927 0 .259.02.35-.078.425-.289.944-2.585 1.89-5.169 2.842-7.751.055-.147.082-.302.08-.458a1550.5 1550.5 0 0 1-.002-5.194zM-.103 6.957v-5.82c0-.778.382-1.13 1.23-1.13h12.856c.847 0 1.239.356 1.239 1.128v11.67c-.005.261-.057.519-.153.764l-3.142 8.58c-.238.65-.534.848-1.283.85H7.722c-.81 0-1.199-.357-1.2-1.099 0-2.534-.007-5.069.008-7.607 0-.298-.1-.348-.397-.346-1.66.013-3.323.007-4.984.007-.867 0-1.251-.354-1.251-1.149-.002-1.95-.002-3.899-.001-5.848zm13.267.477c0-1.742-.006-3.484.006-5.226 0-.245-.04-.332-.345-.332-3.518.012-7.036.012-10.553 0-.259 0-.317.055-.316.288.009 3.203.009 6.405 0 9.606 0 .276.095.314.364.314 1.723-.012 3.437-.009 5.156-.005.69 0 1.09.358 1.11.98.01.334 0 .668 0 1.001 0 2.243.007 4.485-.009 6.728 0 .286.086.36.384.336.286-.021.574-.021.861 0 .232.016.333-.051.41-.26.945-2.606 1.899-5.209 2.86-7.81.052-.147.077-.302.074-.458-.006-1.72-.008-3.441-.006-5.162h.004z"/>
    </g>
    <defs>
        <clipPath id="l23u1v3l1a">
            <path fill="#fff" transform="translate(.357)" d="M0 0h35.291v23H0z"/>
        </clipPath>
    </defs>
</svg>
