<svg width="19" height="19" viewBox="0 0 19 19" fill="none" xmlns="http://www.w3.org/2000/svg">
    <g clip-path="url(#5wug9hbaua)" fill="#1AAEF4">
        <path d="M8.716 0H10.2c.01.04.044.034.074.037a8.644 8.644 0 0 1 2.24.45c4.694 1.568 7.414 6.518 6.198 11.315-.638 2.513-2.078 4.463-4.287 5.818-1.908 1.17-3.993 1.58-6.21 1.294a9.086 9.086 0 0 1-3.274-1.082.39.39 0 0 0-.342-.037c-1.174.383-2.352.755-3.527 1.136-.24.078-.469.093-.696-.03-.186-.103-.28-.283-.375-.462v-.409c.065-.032.06-.1.078-.156.375-1.162.746-2.326 1.126-3.488a.352.352 0 0 0-.028-.307 9.34 9.34 0 0 1-1.074-3.18c-.031-.207-.01-.425-.103-.622V8.719c.04-.01.035-.043.037-.075a8.203 8.203 0 0 1 .446-2.143C1.791 2.92 4.321.787 8.073.1 8.289.065 8.51.083 8.717 0zM1.912 17.057c.049.015.102.01.147-.013.802-.258 1.607-.504 2.403-.777.338-.117.636-.096.93.1.056.038.115.071.174.104 1.574.88 3.26 1.207 5.045.955 1.873-.26 3.468-1.095 4.744-2.494 1.785-1.96 2.463-4.262 2.006-6.873-.392-2.232-1.576-3.98-3.446-5.225-2.091-1.392-4.38-1.705-6.788-.98C5.403 2.372 4.028 3.4 2.982 4.86c-1.24 1.73-1.688 3.665-1.413 5.765a7.577 7.577 0 0 0 1.07 3.003c.18.292.202.573.093.895-.282.838-.547 1.683-.821 2.534h.001z"/>
        <path d="M6.713 9.5a.924.924 0 0 1-1.285.855.924.924 0 0 1-.57-.859.924.924 0 0 1 1.285-.855.924.924 0 0 1 .57.859zM10.422 9.5a.926.926 0 0 1-1.585.653.924.924 0 0 1-.27-.657.925.925 0 0 1 1.285-.855.924.924 0 0 1 .57.859zM14.132 9.49a.925.925 0 0 1-1.277.868.924.924 0 0 1-.578-.853.925.925 0 0 1 1.276-.868.925.925 0 0 1 .579.854z"/>
    </g>
    <defs>
        <clipPath id="5wug9hbaua">
            <path fill="#fff" d="M0 0h19v19H0z"/>
        </clipPath>
    </defs>
</svg>
