<svg width="54" height="97" viewBox="0 0 54 97" fill="none" xmlns="http://www.w3.org/2000/svg">
    <path d="M6.276 52.878c7.396 2.028 9.148 1.46 10.467 3.442.578.848.85 1.868.772 2.892a4.298 4.298 0 0 1-1.206 2.513c-2.534 2.452-9.512-.55-13.506-3.83-.872-.714-3.216-2.636-2.74-3.998.193-.56.794-.835 1.222-1.028 1.9-.861 3.875-.296 4.99.01z" fill="url(#l7enir0v9a)"/>
    <path d="M29.126 3.164H27.55v10.33h1.576V3.165z" fill="url(#sbz7jch0vb)"/>
    <path d="M33.78 12.413H22.9c-.802 0-1.453.65-1.453 1.453v3.884c0 .803.651 1.453 1.454 1.453h10.878c.803 0 1.454-.65 1.454-1.453v-3.884c0-.803-.651-1.453-1.454-1.453z" fill="url(#6njmmz79cc)"/>
    <path d="M23.907 15.658h8.863a20.24 20.24 0 0 1 14.306 5.922 20.211 20.211 0 0 1 5.926 14.297v5.902a11.355 11.355 0 0 1-3.324 8.045 11.371 11.371 0 0 1-8.046 3.334H15.048a11.375 11.375 0 0 1-8.04-3.328 11.358 11.358 0 0 1-3.33-8.035v-5.919a20.211 20.211 0 0 1 5.924-14.295 20.24 20.24 0 0 1 14.305-5.923z" fill="url(#b6trk0kg7d)"/>
    <path d="M45.243 40.703a4.763 4.763 0 0 1-2.103.486H13.556a4.778 4.778 0 0 1-2.106-.486 3.883 3.883 0 0 1-2.251-3.984V36.6c.759-5.495 5.737-9.72 11.843-10.035a140.01 140.01 0 0 1 8.12-.19c2.215 0 4.357.08 6.431.187 6.129.321 11.145 4.52 11.898 10.038l.016.119a3.886 3.886 0 0 1-2.264 3.984z" fill="url(#ufqyfj448e)"/>
    <path style="mix-blend-mode:screen" d="M20.537 39.98a5.58 5.58 0 0 0 5.583-5.578 5.58 5.58 0 0 0-5.583-5.579 5.58 5.58 0 0 0-5.582 5.579 5.58 5.58 0 0 0 5.582 5.578z" fill="url(#o67l23wzxf)"/>
    <path d="M20.537 38.405a4.005 4.005 0 0 0 4.007-4.004 4.005 4.005 0 0 0-4.007-4.004 4.005 4.005 0 0 0-4.006 4.004 4.005 4.005 0 0 0 4.006 4.004z" fill="#CCEAFF"/>
    <path d="M20.537 37.762a3.362 3.362 0 1 0 0-6.722 3.362 3.362 0 1 0 0 6.722z" fill="url(#3bnbdcefng)"/>
    <path d="M22.695 33.531a1.246 1.246 0 0 1-2.13.882 1.247 1.247 0 1 1 2.13-.882zM20.039 37.477a.498.498 0 1 0 0-.997.498.498 0 0 0 0 .997zM18.807 36.233a.25.25 0 1 1-.501.006.25.25 0 0 1 .501-.006z" fill="#CCEAFF"/>
    <path style="mix-blend-mode:screen" d="M35.615 39.98a5.58 5.58 0 0 0 5.583-5.578 5.58 5.58 0 0 0-5.583-5.579 5.58 5.58 0 0 0-5.582 5.579 5.58 5.58 0 0 0 5.582 5.578z" fill="url(#qzrwo9whyh)"/>
    <path d="M35.615 38.405a4.005 4.005 0 0 0 4.007-4.004 4.005 4.005 0 0 0-4.007-4.004 4.005 4.005 0 0 0-4.006 4.004 4.005 4.005 0 0 0 4.006 4.004z" fill="#CCEAFF"/>
    <path d="M35.615 37.762a3.362 3.362 0 1 0-3.363-3.36 3.362 3.362 0 0 0 3.363 3.36z" fill="url(#r6mzziawhi)"/>
    <path d="M37.773 33.531a1.246 1.246 0 0 1-2.13.882 1.247 1.247 0 1 1 2.13-.882zM35.12 37.477a.498.498 0 1 0 0-.997.498.498 0 0 0 0 .997zM33.885 36.233a.247.247 0 0 1-.247.251.25.25 0 1 1 0-.498.248.248 0 0 1 .247.247z" fill="#CCEAFF"/>
    <path d="M30.358 2.477a2.017 2.017 0 0 1-2.414 1.98 2.02 2.02 0 0 1-1.471-2.752 2.018 2.018 0 0 1 3.885.772z" fill="url(#lmifcqf8nj)"/>
    <path d="M29.744 1.69a.616.616 0 1 1-1.233 0 .616.616 0 0 1 1.233 0zM45.719 22.127c.026.941-.743 2.066-1.608 2.162-.826.09-1.485-.752-2.167-1.623-.682-.87-2.135-3.056-1.553-3.679.755-.822 5.264.929 5.328 3.14zM38.172 18.537a.7.7 0 1 0 0-1.402.7.7 0 0 0 0 1.402zM45.61 35.188c-.225.158-1.795-3.036-6.007-5.806-1.48-.964-2.943-1.668-2.856-1.87.087-.203 1.734.177 3.052.787 4.203 1.947 6.087 6.7 5.81 6.89zM34.834 14.421c-.051 0-.084-.286-.321-.742a4.058 4.058 0 0 0-.248-.392c-.421-.582-1.855-.569-1.968-.569-2.235.02-3.67-.122-3.67-.109 0 .013 1.05 0 1.818-.026 2.164-.045 3.453-.16 4.007.421a1.8 1.8 0 0 1 .343.553c.122.273.136.582.04.864z" fill="#fff"/>
    <path d="M34.355 43.582a1.137 1.137 0 0 1-1.035.999l-7.396.713a1.142 1.142 0 0 1-1.206-.78 5.228 5.228 0 0 1-.161-.708.256.256 0 0 1 .051-.19.241.241 0 0 1 .17-.092l9.326-.9a.25.25 0 0 1 .184.058c.05.044.08.107.083.173.013.242.007.485-.016.727z" fill="#CCEAFF"/>
    <path d="M34.355 43.585a4.93 4.93 0 0 1-4.39 4.399A4.939 4.939 0 0 1 24.75 44.6a1.14 1.14 0 0 0 1.177.691l7.396-.71a1.142 1.142 0 0 0 1.032-.996z" fill="url(#ckllzacqvk)"/>
    <path d="M46.018 60.179v.196c-.017.438-.097.87-.238 1.285-2.035 6.212-3.254 9.49-4.965 12.14a20.11 20.11 0 0 1-.939 1.327 24.25 24.25 0 0 1-1.447 1.716c-1.183 1.285-2.971 1.864-3.537 2.066-2.106.743-3.965.608-5.203.617h-.215c-1.242 0-3.1.126-5.207-.617-.575-.202-2.363-.784-3.537-2.066-3.247-3.535-4.502-6.472-7.35-15.183a4.707 4.707 0 0 1-.239-1.218v-.504a5.258 5.258 0 0 1 1.235-2.995 6.823 6.823 0 0 1 5.322-2.484l9.891-.042 9.712-.038a7.01 7.01 0 0 1 5.466 2.49 5.4 5.4 0 0 1 1.206 2.507c.02.122.039.25.052.372.013.122-.007.29-.007.43z" fill="url(#4wdbdqti9l)"/>
    <path d="m29.567 54.427-9.892.042a6.849 6.849 0 0 0-5.322 2.484 5.29 5.29 0 0 0-1.234 2.998 5.258 5.258 0 0 1 1.286-3.072 7 7 0 0 1 5.467-2.49l9.695.038z" fill="url(#hiuhj5yk1m)"/>
    <path d="M39.4 68.99c-.144-7.667-1.183-9.184.348-11.009a4.528 4.528 0 0 1 2.55-1.552 4.316 4.316 0 0 1 2.752.447c3.071 1.738 2.158 9.273.135 14.03-.44 1.037-1.624 3.82-3.064 3.752-.592-.025-1.026-.523-1.332-.88-1.353-1.581-1.366-3.631-1.389-4.788z" fill="url(#qsf7arls0n)"/>
    <path d="M40.812 73.81c-.296.456-.608.896-.94 1.326a4.917 4.917 0 0 1-.285-.321c-1.354-1.584-1.37-3.631-1.39-4.788-.144-7.667-1.186-9.184.348-11.006.337-.406.739-.753 1.19-1.028-1.512 1.819-.48 3.348-.322 10.993.02 1.157.039 3.213 1.386 4.788.006.01.01.023.013.035z" fill="url(#2r0eah2zto)"/>
    <path d="M45.14 62.605a12.429 12.429 0 0 0-.508-2.642c-.402-1.584-.91-2.358-.582-2.664.215-.199.643-.064.733-.035 1.45.463 1.9 3.181 1.836 4.884-.035 1.041-.292 2.205-.672 2.25a.42.42 0 0 1-.321-.094c-.425-.366-.454-1.073-.486-1.7zM46.137 65.513a.302.302 0 1 1-.604 0 .302.302 0 0 1 .604 0z" fill="#fff"/>
    <ellipse cx="30.502" cy="94.5" rx="19.5" ry="2.5" fill="url(#pmmkng7ggp)"/>
    <defs>
        <linearGradient id="l7enir0v9a" x1="10.48" y1="57.535" x2="39.162" y2="79.846" gradientUnits="userSpaceOnUse">
            <stop offset=".04" stop-color="#5617FC"/>
            <stop offset="1" stop-color="#9BEEFA"/>
        </linearGradient>
        <linearGradient id="sbz7jch0vb" x1="25.129" y1="8.797" x2="29.853" y2="8.108" gradientUnits="userSpaceOnUse">
            <stop offset=".04" stop-color="#6830FC"/>
            <stop offset="1" stop-color="#9BEEFA"/>
        </linearGradient>
        <linearGradient id="6njmmz79cc" x1="1046.95" y1="442.001" x2="1177.69" y2="142.254" gradientUnits="userSpaceOnUse">
            <stop offset=".04" stop-color="#6830FC"/>
            <stop offset="1" stop-color="#9BEEFA"/>
        </linearGradient>
        <linearGradient id="b6trk0kg7d" x1="1809.46" y1="6212.84" x2="5543.88" y2="1300.78" gradientUnits="userSpaceOnUse">
            <stop offset=".04" stop-color="#6830FC"/>
            <stop offset="1" stop-color="#9BEEFA"/>
        </linearGradient>
        <linearGradient id="ufqyfj448e" x1="28.252" y1="41.144" x2="28.547" y2="27.86" gradientUnits="userSpaceOnUse">
            <stop stop-color="#030D14"/>
            <stop offset="1" stop-color="#090714"/>
        </linearGradient>
        <linearGradient id="3bnbdcefng" x1="376.404" y1="741.115" x2="517.203" y2="741.115" gradientUnits="userSpaceOnUse">
            <stop stop-color="#030D14"/>
            <stop offset="1" stop-color="#090714"/>
        </linearGradient>
        <linearGradient id="r6mzziawhi" x1="706.919" y1="741.115" x2="847.718" y2="741.115" gradientUnits="userSpaceOnUse">
            <stop stop-color="#030D14"/>
            <stop offset="1" stop-color="#090714"/>
        </linearGradient>
        <linearGradient id="lmifcqf8nj" x1="1052.51" y1="515.647" x2="1131.07" y2="504.209" gradientUnits="userSpaceOnUse">
            <stop offset=".04" stop-color="#6830FC"/>
            <stop offset="1" stop-color="#9BEEFA"/>
        </linearGradient>
        <linearGradient id="ckllzacqvk" x1="28.136" y1="46.3" x2="37.753" y2="36.679" gradientUnits="userSpaceOnUse">
            <stop offset=".07" stop-color="#0300F1"/>
            <stop offset="1" stop-color="#9BEEFA"/>
        </linearGradient>
        <linearGradient id="4wdbdqti9l" x1="19.049" y1="75.478" x2="44.521" y2="45.71" gradientUnits="userSpaceOnUse">
            <stop offset=".04" stop-color="#6830FC"/>
            <stop offset=".12" stop-color="#604CF8"/>
            <stop offset=".25" stop-color="#5672F2"/>
            <stop offset=".36" stop-color="#4F8DED"/>
            <stop offset=".46" stop-color="#4B9DEB"/>
            <stop offset=".54" stop-color="#49A3EA"/>
            <stop offset=".79" stop-color="#74CBF2"/>
            <stop offset="1" stop-color="#9BEEFA"/>
        </linearGradient>
        <linearGradient id="hiuhj5yk1m" x1="3865.26" y1="1760.93" x2="4008.74" y2="1265.62" gradientUnits="userSpaceOnUse">
            <stop offset=".04" stop-color="#6830FC"/>
            <stop offset="1" stop-color="#9BEEFA"/>
        </linearGradient>
        <linearGradient id="qsf7arls0n" x1="50.525" y1="71.258" x2="31.414" y2="57.289" gradientUnits="userSpaceOnUse">
            <stop offset=".04" stop-color="#6830FC"/>
            <stop offset=".35" stop-color="#7B77FB"/>
            <stop offset=".66" stop-color="#8CB7FB"/>
            <stop offset=".88" stop-color="#97DFFA"/>
            <stop offset="1" stop-color="#9BEEFA"/>
        </linearGradient>
        <linearGradient id="2r0eah2zto" x1="917.468" y1="5798.88" x2="1081.52" y2="5783.45" gradientUnits="userSpaceOnUse">
            <stop offset=".04" stop-color="#5617FC"/>
            <stop offset="1" stop-color="#9BEEFA"/>
        </linearGradient>
        <radialGradient id="o67l23wzxf" cx="0" cy="0" r="1" gradientUnits="userSpaceOnUse" gradientTransform="matrix(5.5245 0 0 5.52051 20.537 34.402)">
            <stop offset=".13" stop-color="#74A3FF"/>
            <stop offset="1"/>
        </radialGradient>
        <radialGradient id="qzrwo9whyh" cx="0" cy="0" r="1" gradientUnits="userSpaceOnUse" gradientTransform="matrix(191.811 0 0 191.672 1266.53 1207.3)">
            <stop offset=".13" stop-color="#74A3FF"/>
            <stop offset="1"/>
        </radialGradient>
        <radialGradient id="pmmkng7ggp" cx="0" cy="0" r="1" gradientUnits="userSpaceOnUse" gradientTransform="matrix(0 2.5 -19.5 0 30.502 94.5)">
            <stop stop-color="#032B3E" stop-opacity=".22"/>
            <stop offset="1" stop-color="#C4C4C4" stop-opacity="0"/>
        </radialGradient>
    </defs>
</svg>
