<svg width="16" height="14" viewBox="0 0 16 14" fill="none" xmlns="http://www.w3.org/2000/svg">
    <g clip-path="url(#02t5k36ewa)" fill="#1AAEF4">
        <path d="M11.466.483C10.61.146 9.72-.05 8.799.011c-.212.015-.489.218-.585.407-.076.15.02.461.15.601.131.14.388.18.595.192 3.06.184 5.48 2.371 5.736 5.209.368 4.02-3.4 7.125-7.434 6.127-2.216-.548-4.093-2.598-4.28-4.708.135.124.249.235.369.337.289.245.681.253.911 0 .251-.273.27-.584.009-.85a51.417 51.417 0 0 0-1.625-1.578c-.261-.24-.58-.232-.837.009a44.768 44.768 0 0 0-1.623 1.58c-.26.268-.24.592.03.845s.596.253.872.005c.16-.143.265-.344.393-.516l.126.098c.031.122.07.244.088.367.632 3.77 4.358 6.39 8.229 5.765a7.272 7.272 0 0 0 4.08-2.08 6.924 6.924 0 0 0 1.95-4.061 6.848 6.848 0 0 0-.98-4.38 7.153 7.153 0 0 0-3.51-2.904l.003.007z"/>
        <path d="M6.985 10.113c.701-.675 1.414-1.342 2.084-2.045.177-.2.283-.452.302-.715.041-.67.014-1.346.014-2.02 0-.73.009-1.46 0-2.19-.007-.396-.288-.668-.653-.68-.365-.013-.65.232-.697.633a3.3 3.3 0 0 0-.01.386c0 1.089-.013 2.177.008 3.265a.983.983 0 0 1-.344.83c-.57.515-1.113 1.065-1.66 1.605-.354.344-.379.74-.09 1.021.29.281.68.262 1.046-.09zM8.461 10.617c-.397 0-.48.309-.464.641v.387c.015.295.144.505.476.498.31-.006.423-.217.442-.49.007-.127 0-.257 0-.384.013-.329-.053-.65-.454-.652zM11.732 3.211a2.702 2.702 0 0 0-.707.694c-.177.257.088.585.41.58.265 0 .921-.615.936-.877.026-.317-.365-.58-.639-.397zM13.22 7.397h.308c.295-.007.479-.146.475-.442-.003-.297-.197-.424-.492-.42-.19 0-.382.004-.572 0-.298-.008-.5.136-.505.415 0 .302.205.456.522.448.088-.007.176 0 .264 0zM11.653 9.493c-.098-.073-.33-.067-.441 0a.552.552 0 0 0-.213.382c-.02.263.654.876.922.876.343 0 .578-.357.38-.626a3.01 3.01 0 0 0-.648-.632z"/>
    </g>
    <defs>
        <clipPath id="02t5k36ewa">
            <path fill="#fff" d="M0 0h16v14H0z"/>
        </clipPath>
    </defs>
</svg>
