<svg width="64" height="64" viewBox="0 0 64 64" fill="none" xmlns="http://www.w3.org/2000/svg">
<g clip-path="url(#clip0_270_2029)">
<path d="M63.9999 31.939C63.8906 35.6463 63.2577 39.3195 62.1199 42.8498C60.5008 48.3834 60.5008 54.2647 62.1199 59.7983C62.4058 60.8201 62.3915 60.8272 61.3621 60.5914C54.8499 59.1624 48.6094 59.9841 42.3044 62.1205C31.1886 65.8789 20.8591 63.9425 11.6876 56.5901C4.91804 51.1668 1.1436 43.9573 0.185707 35.3687C-0.712532 27.1666 1.60553 18.9357 6.65264 12.4064C11.6997 5.87716 19.0829 1.55808 27.2498 0.357004C38.144 -1.19351 47.5727 2.09322 55.2072 10.0102C60.3953 15.338 63.4672 22.3704 63.8498 29.7954C63.907 30.5242 63.9498 31.2316 63.9999 31.939ZM52.7053 36.9406C52.7737 36.9529 52.8444 36.9445 52.9081 36.9165C52.9717 36.8885 53.0255 36.8422 53.0627 36.7835C53.6327 36.611 54.1311 36.2575 54.4819 35.7766C54.8328 35.2956 55.0172 34.7135 55.0072 34.1183C55.032 33.4927 54.853 32.8759 54.4973 32.3605C54.1415 31.8452 53.6282 31.4591 53.0343 31.2602C52.5839 31.0959 52.4624 30.7171 52.3194 30.3027C51.7386 28.4778 50.7275 26.8191 49.3716 25.4662C48.0156 24.1133 46.3543 23.1059 44.5275 22.5286C42.5331 21.8141 40.4815 22.0142 38.437 21.9784C38.1031 21.9958 37.7689 21.9523 37.4506 21.8499C37.4506 21.2497 36.9788 20.971 36.5785 20.6637C35.4106 19.8316 34.0231 19.3619 32.5896 19.3133C32.1179 19.3133 31.9392 19.1419 31.9607 18.656C31.9607 17.8629 31.9607 17.0625 31.9607 16.2622C31.9607 15.6406 31.9606 15.0976 32.6326 14.6832C32.7967 14.5471 32.9318 14.3794 33.03 14.1901C33.1281 14.0008 33.1873 13.7938 33.204 13.5813C33.2206 13.3688 33.1945 13.155 33.127 12.9528C33.0595 12.7505 32.9522 12.5639 32.8113 12.4039C32.5054 12.0779 32.0834 11.8854 31.6366 11.868C31.1898 11.8506 30.754 12.0097 30.4236 12.311C29.7946 12.8969 29.7088 14.1616 30.4236 14.5831C31.2815 15.0833 31.1385 15.755 31.1385 16.4695C31.1385 16.9839 31.1028 17.5056 31.1385 18.0129C31.2171 18.8417 31.1385 19.4419 30.0376 19.3562C29.7526 19.3549 29.4697 19.4032 29.2013 19.4991C27.693 19.9063 26.2419 20.4065 25.5128 21.9784C24.3476 21.9784 23.1823 21.9784 22.0099 21.9784C19.6161 22.0167 17.2887 22.7709 15.3278 24.1438C13.3669 25.5167 11.8625 27.4454 11.0085 29.681C10.8227 30.1741 10.8369 30.7671 10.3794 31.1101C9.73893 31.2493 9.16573 31.6042 8.75581 32.1154C8.34589 32.6266 8.12421 33.2631 8.1277 33.9182C8.07052 35.2758 9.22134 36.7763 10.3794 36.8478L10.6797 37.0764C11.4518 41.4564 16.1483 45.6507 20.8377 45.908C27.8431 46.2295 34.8628 46.1581 41.8683 45.908C46.5934 45.7579 51.0327 42.071 52.3051 37.5051C52.37 37.4379 52.4181 37.3562 52.4454 37.2668C52.4728 37.1774 52.4786 37.0827 52.4624 36.9906L52.7053 36.9406Z" fill="#1AAEF4"/>
<path d="M37.465 21.8574C37.7652 22.1147 38.1226 21.9788 38.4514 21.986C40.4959 21.986 42.5475 21.8502 44.5419 22.5362C46.3687 23.1134 48.03 24.1209 49.3859 25.4737C50.7419 26.8266 51.753 28.4853 52.3338 30.3102C52.4768 30.7246 52.5983 31.1033 53.0486 31.2677C52.9232 31.3565 52.8275 31.4811 52.7739 31.6251C52.7204 31.7691 52.7114 31.9259 52.7483 32.0751C52.9555 33.3662 52.97 34.681 52.7912 35.9764C52.7586 36.1221 52.7682 36.2741 52.8188 36.4146C52.8694 36.555 52.959 36.6781 53.0771 36.7696V36.7696C53.0086 36.7473 52.9343 36.751 52.8684 36.78C52.8024 36.809 52.7495 36.8612 52.7197 36.9267L52.5338 37.0768C52.3479 37.2125 52.3694 37.4055 52.3766 37.5913C51.1041 42.1571 46.6579 45.844 41.9399 45.9941C34.9345 46.2085 27.9146 46.2799 20.9091 45.9941C16.2197 45.7726 11.5232 41.5425 10.7512 37.1625C10.7512 36.991 10.6011 36.9482 10.451 36.9339C10.737 36.3265 10.2365 35.8264 10.2294 35.2333C10.2294 33.8757 10.5082 32.5467 10.451 31.1962C10.9085 30.8175 10.8941 30.2245 11.08 29.7672C11.9339 27.5315 13.4383 25.6029 15.3993 24.23C17.3602 22.857 19.6877 22.1029 22.0815 22.0647C23.2539 22.0647 24.419 22.0647 25.5842 22.0647C29.5301 22.0218 33.4976 22.1647 37.465 21.8574ZM31.5962 40.3064H35.8852C37.3149 40.3064 38.7945 40.3064 40.2457 40.3064C40.9023 40.3136 41.5566 40.2295 42.19 40.0564C43.6623 39.6478 44.9347 38.7158 45.7679 37.4356C46.6012 36.1554 46.938 34.615 46.715 33.104C46.5117 31.6348 45.7842 30.2884 44.6663 29.3128C43.5485 28.3373 42.1156 27.7983 40.6317 27.7951C34.5555 27.7451 28.4794 27.7951 22.4032 27.7951C21.6876 27.7998 20.9803 27.948 20.3231 28.2309C18.9486 28.7917 17.8181 29.8223 17.1333 31.1389C16.4485 32.4555 16.254 33.9724 16.5844 35.4191C16.902 36.821 17.6915 38.0713 18.8209 38.9609C19.9504 39.8506 21.3514 40.3255 22.7892 40.3064C25.7201 40.3136 28.6653 40.3064 31.5962 40.3064Z" fill="#FBFCFD"/>
<path d="M37.4651 21.8572C33.4977 22.1644 29.5302 22.0072 25.5557 21.9858C26.2705 20.4138 27.7003 19.9137 29.2444 19.5064C29.5127 19.4105 29.7957 19.3622 30.0807 19.3635C31.1672 19.4778 31.2602 18.8491 31.1816 18.0202C31.1387 17.5129 31.1816 16.9913 31.1816 16.4768C31.1816 15.7623 31.2959 15.0906 30.4667 14.5905C29.7519 14.1689 29.852 12.9042 30.4667 12.3183C30.7971 12.0171 31.2327 11.8579 31.6795 11.8753C32.1263 11.8927 32.5485 12.0852 32.8544 12.4112C32.9953 12.5712 33.1026 12.7578 33.1701 12.9601C33.2375 13.1623 33.2637 13.3761 33.247 13.5886C33.2304 13.8012 33.1712 14.0082 33.073 14.1974C32.9749 14.3867 32.8398 14.5544 32.6757 14.6905C31.9608 15.1049 31.9964 15.6479 32.0036 16.2696C32.0036 17.0698 32.0036 17.8702 32.0036 18.6633C32.0036 19.1492 32.1609 19.2849 32.6327 19.3206C34.0662 19.3692 35.4535 19.8389 36.6214 20.6711C36.9932 20.9783 37.4508 21.257 37.4651 21.8572Z" fill="#E4E8EB"/>
<path d="M10.4223 31.168C10.4795 32.5184 10.5581 33.876 10.5796 35.2336C10.6725 35.7951 10.6184 36.3711 10.4223 36.9055C9.26427 36.8055 8.11344 35.3336 8.17063 33.976C8.16713 33.3209 8.38881 32.6845 8.79873 32.1733C9.20865 31.6621 9.78185 31.3072 10.4223 31.168V31.168Z" fill="#E4E8EB"/>
<path d="M53.0771 36.7695C52.959 36.6781 52.8694 36.5549 52.8188 36.4145C52.7682 36.274 52.7586 36.1221 52.7912 35.9764C52.97 34.681 52.9555 33.3662 52.7483 32.075C52.7114 31.9258 52.7204 31.769 52.774 31.625C52.8275 31.481 52.9232 31.3564 53.0487 31.2676C53.6426 31.4665 54.1559 31.8526 54.5117 32.368C54.8674 32.8833 55.0464 33.5001 55.0216 34.1257C55.0269 34.7172 54.8402 35.2946 54.4897 35.7712C54.1391 36.2478 53.6435 36.5981 53.0771 36.7695Z" fill="#E4E8EB"/>
<path d="M52.3551 37.5985C52.3551 37.4127 52.3553 37.2197 52.5125 37.084C52.5287 37.1761 52.5229 37.2707 52.4956 37.3601C52.4683 37.4495 52.42 37.5312 52.3551 37.5985V37.5985Z" fill="#E4E8EB"/>
<path d="M52.7053 36.9264C52.7352 36.8609 52.7883 36.8087 52.8542 36.7797C52.9201 36.7507 52.9943 36.747 53.0627 36.7692C53.0255 36.828 52.9718 36.8743 52.9081 36.9023C52.8445 36.9303 52.7738 36.9386 52.7053 36.9264Z" fill="#E4E8EB"/>
<path d="M10.4296 36.9053C10.5797 36.9053 10.7012 36.9625 10.7297 37.134L10.4296 36.9053Z" fill="#1AAEF4"/>
<path d="M52.5197 37.07L52.7053 36.9199L52.5197 37.07Z" fill="#E4E8EB"/>
<path d="M31.5962 40.3063C28.6582 40.3063 25.7202 40.3063 22.7822 40.3063C21.3443 40.3254 19.9435 39.8504 18.814 38.9608C17.6846 38.0711 16.895 36.8208 16.5774 35.4189C16.247 33.9723 16.4415 32.4554 17.1262 31.1388C17.811 29.8222 18.9415 28.7915 20.316 28.2308C20.9732 27.9478 21.6805 27.7996 22.3961 27.7949C28.4723 27.7949 34.5485 27.7949 40.6246 27.7949C42.1086 27.7982 43.5414 28.3372 44.6592 29.3127C45.7771 30.2882 46.5046 31.6346 46.708 33.1039C46.9309 34.6148 46.5941 36.1552 45.7608 37.4354C44.9276 38.7157 43.6552 39.6476 42.1829 40.0562C41.5496 40.2293 40.8952 40.3135 40.2386 40.3063C38.8089 40.3063 37.3293 40.3063 35.8781 40.3063H31.5962ZM26.5208 34.0828C26.5382 33.8267 26.5012 33.5699 26.4124 33.3291C26.3236 33.0883 26.1849 32.869 26.0054 32.6855C25.8259 32.502 25.6095 32.3585 25.3707 32.2644C25.1318 32.1702 24.8758 32.1276 24.6194 32.1393C24.3706 32.1411 24.1248 32.1922 23.896 32.2897C23.6672 32.3873 23.4599 32.5292 23.2864 32.7073C23.1128 32.8854 22.9764 33.0961 22.8849 33.3273C22.7935 33.5585 22.7488 33.8056 22.7535 34.0542C22.7609 34.5415 22.9573 35.0069 23.3014 35.3522C23.6455 35.6975 24.1104 35.8956 24.5979 35.9049C24.8468 35.9239 25.0969 35.8906 25.3321 35.8071C25.5673 35.7236 25.7824 35.5917 25.9635 35.4201C26.1447 35.2484 26.288 35.0407 26.384 34.8104C26.4799 34.5801 26.5265 34.3322 26.5208 34.0828V34.0828ZM38.5302 35.9049C38.7796 35.9195 39.0294 35.881 39.2628 35.792C39.4963 35.703 39.7083 35.5655 39.8847 35.3886C40.061 35.2116 40.1977 34.9993 40.2859 34.7656C40.374 34.5318 40.4114 34.2821 40.3958 34.0328C40.4046 33.7839 40.3627 33.5357 40.2725 33.3035C40.1823 33.0713 40.0458 32.8599 39.8712 32.6821C39.6967 32.5043 39.4878 32.3639 39.2573 32.2693C39.0267 32.1748 38.7794 32.1281 38.5302 32.1321C38.0289 32.1359 37.5492 32.3366 37.1947 32.6909C36.8403 33.0452 36.6395 33.5246 36.6357 34.0256C36.6288 34.2755 36.6732 34.5242 36.7661 34.7563C36.859 34.9884 36.9986 35.199 37.1761 35.3751C37.3536 35.5512 37.5653 35.6891 37.7982 35.7802C38.0312 35.8713 38.2802 35.9137 38.5302 35.9049V35.9049Z" fill="#515252"/>
<path d="M26.5208 34.0831C26.5265 34.3325 26.4799 34.5803 26.3839 34.8107C26.288 35.041 26.1447 35.2487 25.9635 35.4204C25.7823 35.592 25.5673 35.7239 25.3321 35.8074C25.0969 35.8908 24.8468 35.9242 24.5979 35.9051C24.1104 35.8959 23.6454 35.6978 23.3013 35.3525C22.9572 35.0072 22.7608 34.5418 22.7535 34.0545C22.7488 33.8059 22.7935 33.5588 22.8849 33.3276C22.9764 33.0964 23.1128 32.8857 23.2863 32.7076C23.4599 32.5295 23.6671 32.3875 23.8959 32.29C24.1247 32.1925 24.3706 32.1414 24.6193 32.1396C24.8758 32.1279 25.1318 32.1705 25.3707 32.2647C25.6095 32.3588 25.8259 32.5023 26.0054 32.6858C26.1849 32.8692 26.3236 33.0886 26.4124 33.3294C26.5012 33.5702 26.5381 33.827 26.5208 34.0831Z" fill="#4AC8ED"/>
<path d="M38.5302 35.9048C38.2802 35.9137 38.0311 35.8713 37.7982 35.7801C37.5653 35.689 37.3536 35.5511 37.176 35.375C36.9985 35.1989 36.859 34.9884 36.7661 34.7562C36.6732 34.5241 36.6287 34.2755 36.6357 34.0256C36.6395 33.5246 36.8403 33.0451 37.1947 32.6908C37.5492 32.3365 38.0289 32.1358 38.5302 32.1321C38.7793 32.128 39.0267 32.1747 39.2572 32.2693C39.4878 32.3638 39.6967 32.5042 39.8712 32.682C40.0457 32.8598 40.1822 33.0713 40.2724 33.3035C40.3626 33.5357 40.4046 33.7838 40.3958 34.0327C40.4114 34.282 40.374 34.5318 40.2859 34.7655C40.1977 34.9992 40.061 35.2116 39.8846 35.3885C39.7083 35.5655 39.4963 35.7029 39.2628 35.7919C39.0293 35.8809 38.7796 35.9194 38.5302 35.9048V35.9048Z" fill="#4AC8ED"/>
</g>
<defs>
<clipPath id="clip0_270_2029">
<rect width="64" height="64" fill="white"/>
</clipPath>
</defs>
</svg>
