<svg width="204" height="55" viewBox="0 0 204 55" fill="none" xmlns="http://www.w3.org/2000/svg">
<g clip-path="url(#clip0_343_674)">
<path fill-rule="evenodd" clip-rule="evenodd" d="M81.9524 38.8685C81.0475 38.7313 80.1349 38.6516 79.22 38.6298C78.3311 38.6723 77.4453 38.7653 76.5668 38.9083C76.7054 38.1922 76.9232 37.4164 77.0222 36.6207C77.1604 35.6451 77.2397 34.662 77.2598 33.6768C77.2598 26.6551 77.2598 19.6334 77.2598 12.6316V12.1144H76.745C75.2798 12.1144 73.8344 12.1144 72.3692 12.1144C71.0644 12.0884 69.7817 12.4556 68.6864 13.1687L68.231 13.4273C68.6842 11.565 68.6842 9.62044 68.231 7.75817L69.0824 8.05654C70.1513 8.43195 71.2765 8.62033 72.4088 8.6135H86.5461C87.7572 8.6321 88.9606 8.41599 90.0903 7.97698L90.7041 7.73828C90.179 9.59792 90.179 11.5676 90.7041 13.4273L89.2785 12.6714C88.5789 12.2963 87.7941 12.1111 87.0015 12.1343H81.2V33.6171C81.1898 35.3954 81.4434 37.1653 81.9524 38.8685Z" fill="#373435"/>
<path fill-rule="evenodd" clip-rule="evenodd" d="M60.0734 8.0957C61.8392 8.65315 63.7328 8.65315 65.4986 8.0957C65.3402 8.91125 65.1224 9.68702 65.0234 10.4827C64.8746 11.5038 64.7952 12.5339 64.7858 13.5659C64.7858 20.2096 64.7858 26.8335 64.7858 33.4574C64.7621 35.2048 64.9889 36.9466 65.459 38.6292C65.459 38.6292 65.459 38.8082 65.459 38.9275C63.6848 38.3809 61.7882 38.3809 60.014 38.9275C60.1729 38.3586 60.2986 37.7807 60.3902 37.197C60.5807 36.0323 60.6932 34.856 60.7268 33.6762C60.7268 26.8932 60.7268 20.1301 60.7268 13.3471C60.7406 11.6917 60.5138 10.0432 60.0536 8.45375C60.1328 8.37418 60.113 8.25484 60.0734 8.0957Z" fill="#373435"/>
<path fill-rule="evenodd" clip-rule="evenodd" d="M174.934 11.676C174.934 15.4952 174.934 19.3144 174.934 23.1335C174.997 23.9431 175.116 24.7473 175.29 25.5404C174.321 25.2519 173.289 25.2519 172.32 25.5404C172.702 20.79 172.808 16.0211 172.637 11.2583C172.602 10.3647 172.51 9.47433 172.36 8.59284C172.36 8.41382 172.36 8.25469 172.201 8.05577C172.874 8.05577 173.528 8.2149 174.181 8.2149C174.835 8.2149 175.468 8.11544 176.042 8.07566C176.498 8.89121 176.933 9.74655 177.448 10.5621C179.646 14.0829 181.883 17.6037 184.101 21.1245L184.358 21.5024V20.8858C184.358 17.8623 184.358 14.9183 184.358 11.8153C184.417 10.5229 184.25 9.23018 183.863 7.99609C184.823 8.3038 185.854 8.3038 186.814 7.99609C186.794 8.13466 186.794 8.27525 186.814 8.41382C186.636 9.32023 186.517 10.2371 186.457 11.1588C186.457 14.3017 186.457 17.4247 186.457 20.5675C186.325 22.2415 186.493 23.9258 186.952 25.5404C186.429 25.4448 185.9 25.385 185.368 25.3614C184.843 25.3933 184.32 25.4598 183.804 25.5603L175.092 11.6362L174.934 11.676Z" fill="#373435"/>
<path fill-rule="evenodd" clip-rule="evenodd" d="M151.213 11.676V22.1191C151.172 23.2025 151.312 24.2851 151.629 25.3216C151.641 25.394 151.641 25.4679 151.629 25.5404C150.595 25.232 149.495 25.232 148.461 25.5404C148.986 23.3814 149.174 21.1533 149.015 18.9364C149.015 16.0323 149.015 13.1281 149.015 10.2239C148.95 9.47492 148.838 8.7308 148.679 7.99609C149.915 8.29427 151.204 8.29427 152.441 7.99609C152.916 8.87132 153.351 9.72666 153.846 10.5223C156.084 14.1028 158.321 17.6435 160.578 21.2041C160.618 21.2858 160.672 21.3598 160.737 21.4229C160.737 21.2438 160.737 21.1444 160.737 21.0449C160.737 17.6634 160.737 14.2818 160.737 10.9201C160.69 9.94653 160.584 8.97668 160.42 8.01599C161.315 8.30378 162.277 8.30378 163.172 8.01599C163.186 8.10834 163.186 8.20212 163.172 8.29447C162.872 9.33405 162.738 10.4151 162.776 11.497C162.776 14.4807 162.776 17.4644 162.776 20.4283C162.637 22.1746 162.805 23.932 163.271 25.62C162.262 25.2818 161.172 25.2818 160.163 25.62L151.411 11.6959L151.213 11.676Z" fill="#373435"/>
<path fill-rule="evenodd" clip-rule="evenodd" d="M113.989 18.2609V21.9408C113.921 23.1602 114.082 24.3817 114.464 25.5412C113.326 25.2129 112.118 25.2129 110.979 25.5412C111.492 23.5967 111.66 21.5766 111.474 19.5737C111.474 16.8884 111.474 14.1831 111.474 11.4978C111.526 10.2775 111.358 9.05799 110.979 7.8974C111.491 7.97076 112.007 8.01724 112.524 8.03664C113.912 8.05687 115.3 7.99709 116.682 7.85761C117.973 7.58435 119.319 7.83156 120.43 8.54596C121.541 9.26036 122.328 10.3847 122.622 11.6768C122.901 12.8683 122.752 14.1205 122.201 15.2124C121.651 16.3043 120.734 17.1656 119.612 17.6442L119.137 17.863C120.879 20.3694 122.265 23.0746 124.285 25.4616C123.081 25.174 121.826 25.174 120.622 25.4616C119.372 23.0027 117.929 20.648 116.306 18.42C116.273 18.3616 116.227 18.3115 116.172 18.2736C116.118 18.2357 116.055 18.2109 115.989 18.2012L113.989 18.2609ZM113.989 16.4706C114.88 16.4706 115.692 16.4706 116.484 16.4706C116.912 16.4327 117.332 16.3322 117.731 16.1723C118.351 15.91 118.874 15.461 119.228 14.8874C119.583 14.3138 119.752 13.6438 119.711 12.9697C119.692 12.3418 119.48 11.7351 119.105 11.2329C118.729 10.7308 118.208 10.3577 117.612 10.165C116.559 9.80729 115.418 9.80729 114.365 10.165C114.303 10.1724 114.242 10.1922 114.187 10.2233C114.132 10.2544 114.084 10.2961 114.045 10.3461C114.007 10.3961 113.978 10.4533 113.962 10.5144C113.945 10.5755 113.941 10.6393 113.949 10.7021C113.949 12.1741 113.949 13.6659 113.949 15.1379L113.989 16.4706Z" fill="#373435"/>
<path fill-rule="evenodd" clip-rule="evenodd" d="M140.541 25.5211C139.399 25.2129 138.197 25.2129 137.056 25.5211C136.827 23.8091 136.388 22.1322 135.749 20.5284C135.719 20.4583 135.673 20.3965 135.615 20.348C135.556 20.2996 135.487 20.2659 135.413 20.2499H129.215C128.578 21.8892 128.172 23.6099 128.007 25.362H124.859C125.124 24.9058 125.362 24.4342 125.572 23.9497C126.087 22.5772 126.562 21.2047 127.037 19.8123C128.146 16.5898 129.275 13.3674 130.344 10.1251C130.538 9.43345 130.684 8.72886 130.779 8.0166C131.433 8.0166 132.106 8.15584 132.759 8.15584C133.413 8.15584 134.145 8.05638 134.739 8.0166C135.156 10.4649 135.819 12.8642 136.719 15.1775C137.452 17.664 138.284 20.1305 139.115 22.5772C139.61 23.6115 140.105 24.5464 140.541 25.5211ZM135.155 18.4994C134.35 15.7677 133.538 13.0624 132.72 10.3837L130.047 18.5193L135.155 18.4994Z" fill="#373435"/>
<path fill-rule="evenodd" clip-rule="evenodd" d="M200.377 18.1611H203.861C203.392 20.4041 203.298 22.71 203.584 24.9839C201.836 25.4486 200.044 25.7286 198.238 25.8194C196.397 25.8157 194.588 25.3288 192.991 24.407C191.633 23.5762 190.538 22.373 189.837 20.9389C189.135 19.5048 188.856 17.8994 189.031 16.3112C189.087 14.3874 189.784 12.5382 191.011 11.0599C192.48 9.33222 194.561 8.24763 196.813 8.03634C198.601 7.79685 200.418 7.91858 202.159 8.39439C202.634 8.51374 203.069 8.73255 203.446 8.8519C203.188 9.80669 202.931 10.7018 202.693 11.577C202.576 11.5057 202.47 11.4187 202.376 11.3184C201.27 10.2982 199.828 9.72385 198.326 9.70549C196.825 9.68714 195.369 10.2261 194.239 11.219C193.085 12.3647 192.382 13.8905 192.259 15.5156C191.971 17.2387 192.191 19.0089 192.892 20.6078C193.428 21.7871 194.323 22.7652 195.447 23.4014C196.571 24.0377 197.867 24.2992 199.149 24.1485C199.649 24.0846 200.145 23.9916 200.634 23.87C200.692 23.8511 200.745 23.8173 200.787 23.772C200.828 23.7267 200.858 23.6714 200.872 23.6114C200.872 22.1792 200.872 20.7271 200.872 19.2949C200.754 18.8978 200.588 18.517 200.377 18.1611Z" fill="#373435"/>
<path fill-rule="evenodd" clip-rule="evenodd" d="M103.673 25.5011C102.604 25.2036 101.475 25.2036 100.406 25.5011C100.545 24.8248 100.663 24.2082 100.762 23.512C100.792 23.1679 100.792 22.8218 100.762 22.4776C100.762 18.4993 100.762 14.521 100.762 10.5427V10.1847H100.347C99.5547 10.1847 98.7429 10.1847 97.9509 10.1847C96.9308 10.1106 95.9148 10.3763 95.0601 10.9406C95.3766 9.88318 95.3766 8.75562 95.0601 7.69824L95.5749 7.83748C96.3115 8.00058 97.0595 8.10698 97.8123 8.15575C100.743 8.15575 103.752 8.15575 106.584 8.15575C107.338 8.11135 108.087 7.99816 108.821 7.81759L109.257 7.71813C108.95 8.7499 108.95 9.84911 109.257 10.8809C107.984 10.2409 106.55 9.99846 105.138 10.1847H103.297V10.7814C103.297 14.6404 103.297 18.5192 103.297 22.3782C103.356 23.3727 103.475 24.427 103.673 25.5011Z" fill="#373435"/>
<path fill-rule="evenodd" clip-rule="evenodd" d="M203.98 41.9908H63.0236C63.0236 41.7123 63.0236 41.5333 63.3008 41.573H203.683C203.98 41.5333 204.059 41.6725 203.98 41.9908Z" fill="#0BA0DC"/>
<path fill-rule="evenodd" clip-rule="evenodd" d="M201.089 51.7178V52.1156H60.113V51.7178H201.089Z" fill="#0BA0DC"/>
<path fill-rule="evenodd" clip-rule="evenodd" d="M165.845 33.1788C165.77 33.8475 165.657 34.5116 165.509 35.1679C165.19 36.287 164.513 37.2699 163.584 37.9652C162.655 38.6605 161.524 39.0297 160.365 39.0162C159.206 39.0026 158.084 38.607 157.171 37.8901C156.258 37.1732 155.605 36.1749 155.312 35.0486C154.935 33.7089 154.935 32.2906 155.312 30.9509C155.647 29.8447 156.332 28.8781 157.263 28.1971C158.193 27.5161 159.319 27.1575 160.47 27.1754C161.621 27.1934 162.735 27.587 163.644 28.2967C164.553 29.0064 165.207 29.9939 165.509 31.11C165.707 31.8261 165.746 32.4826 165.845 33.1788ZM163.667 33.1788C163.7 32.3179 163.537 31.461 163.192 30.6724C162.998 30.0936 162.628 29.5905 162.134 29.2337C161.64 28.8769 161.048 28.6845 160.44 28.6833C159.826 28.6677 159.223 28.8534 158.723 29.2122C158.223 29.571 157.852 30.0836 157.668 30.6724C157.292 31.5312 157.097 32.4593 157.097 33.3976C157.097 34.3359 157.292 35.2639 157.668 36.1227C157.869 36.6688 158.235 37.1383 158.714 37.4662C159.193 37.7942 159.761 37.9642 160.341 37.9527C160.916 37.9544 161.478 37.7801 161.951 37.4532C162.425 37.1264 162.789 36.6623 162.994 36.1227C163.459 35.1917 163.69 34.1605 163.667 33.1191V33.1788Z" fill="#0BA0DC"/>
<path fill-rule="evenodd" clip-rule="evenodd" d="M114.583 27.4697H116.9L122.285 36.1026H122.404C122.265 33.2383 122.602 30.354 122.206 27.5294H123.849C123.612 31.2785 123.612 35.0389 123.849 38.788H122.166C122.112 38.7822 122.059 38.7651 122.011 38.7377C121.963 38.7103 121.922 38.6733 121.889 38.6289C121.669 38.3349 121.464 38.0295 121.275 37.7139C119.652 35.1545 118.035 32.5752 116.424 29.9761L116.246 29.7175C116.246 29.8965 116.246 29.9959 116.246 30.0954C116.246 32.363 116.246 34.6307 116.246 36.8983C116.278 37.5125 116.351 38.1238 116.464 38.7283H114.623C114.854 34.9786 114.841 31.2177 114.583 27.4697Z" fill="#0BA0DC"/>
<path fill-rule="evenodd" clip-rule="evenodd" d="M135.155 38.8883C135.155 37.7545 135.274 36.6803 135.294 35.5863C135.294 33.6634 135.294 31.734 135.294 29.7979C135.294 28.9624 135.175 28.1469 135.116 27.2915C135.214 27.2765 135.314 27.2765 135.413 27.2915C136.551 27.5367 137.723 27.5838 138.878 27.4308C139.638 27.3013 140.414 27.3013 141.174 27.4308C141.912 27.5879 142.594 27.9399 143.151 28.4504C143.708 28.961 144.119 29.6115 144.342 30.3349C144.955 31.9902 144.955 33.8117 144.342 35.4669C144.073 36.3979 143.515 37.2183 142.749 37.8086C141.983 38.3989 141.05 38.7283 140.085 38.749C138.462 38.9678 136.759 38.8883 135.155 38.8883ZM136.917 32.6622C136.917 33.796 136.917 34.91 136.917 36.0438C136.907 36.4889 137.071 36.9203 137.375 37.2443C137.679 37.5683 138.098 37.7588 138.541 37.7743C139.414 37.852 140.289 37.6363 141.027 37.1612C141.765 36.686 142.325 35.9782 142.62 35.1487C142.906 34.4334 143.061 33.6717 143.075 32.9009C143.067 32.2125 142.894 31.5361 142.572 30.9288C142.249 30.3214 141.786 29.8008 141.221 29.4109C140.656 29.0209 140.007 28.773 139.327 28.688C138.646 28.6031 137.956 28.6835 137.313 28.9226C137.214 28.9463 137.126 29.0061 137.068 29.0906C137.009 29.175 136.984 29.2781 136.997 29.3801C136.937 30.4145 136.917 31.5682 136.917 32.6622Z" fill="#0BA0DC"/>
<path fill-rule="evenodd" clip-rule="evenodd" d="M176.537 38.7884C176.795 35.0068 176.795 31.2119 176.537 27.4303C177.774 27.5693 179.023 27.5693 180.26 27.4303C180.67 27.353 181.091 27.3582 181.498 27.4457C181.906 27.5332 182.293 27.7011 182.635 27.9399C182.978 28.1786 183.27 28.4833 183.494 28.8363C183.719 29.1894 183.871 29.5837 183.943 29.9964C184.092 30.7237 183.996 31.4803 183.67 32.1466C183.343 32.813 182.805 33.3512 182.141 33.6763L181.646 33.9349L184.853 38.8083H182.675C181.918 37.343 181.058 35.9338 180.101 34.5913C180.033 34.4345 179.913 34.3057 179.762 34.2262C179.611 34.1467 179.437 34.1211 179.27 34.1537H178.399C178.311 35.7108 178.404 37.2728 178.676 38.8083L176.537 38.7884ZM178.339 32.9602C179.213 33.0807 180.104 32.9851 180.933 32.6817C181.251 32.5217 181.524 32.283 181.725 31.988C181.927 31.6929 182.05 31.3513 182.084 30.9952C182.117 30.639 182.06 30.2802 181.918 29.9524C181.775 29.6245 181.552 29.3385 181.27 29.1211C180.882 28.8571 180.438 28.6888 179.973 28.63C179.509 28.5713 179.037 28.6237 178.597 28.783C178.535 28.8114 178.48 28.8527 178.436 28.9042C178.391 28.9556 178.358 29.016 178.339 29.0813C178.319 30.3544 178.339 31.6275 178.339 32.9602Z" fill="#0BA0DC"/>
<path fill-rule="evenodd" clip-rule="evenodd" d="M166.023 7.97656C167.13 8.29439 168.303 8.29439 169.409 7.97656C168.919 10.0735 168.758 12.2348 168.934 14.3816C168.934 16.4901 168.934 18.5787 168.934 20.6872C168.795 22.3285 168.963 23.9815 169.429 25.5606C168.319 25.2726 167.154 25.2726 166.043 25.5606C166.162 24.8247 166.301 24.1086 166.4 23.3925C166.42 23.0015 166.42 22.6098 166.4 22.2189C166.4 18.6782 166.4 15.1574 166.4 11.6366C166.434 10.4933 166.287 9.35181 165.964 8.25504L166.023 7.97656Z" fill="#373435"/>
<path fill-rule="evenodd" clip-rule="evenodd" d="M142.224 7.95703C143.33 8.27486 144.503 8.27486 145.61 7.95703C145.491 8.77258 145.372 9.52846 145.253 10.2843C145.253 10.5031 145.253 10.7021 145.253 10.9209C145.253 14.8992 145.253 18.6785 145.253 22.5574C145.308 23.5445 145.42 24.5275 145.59 25.5013C144.525 25.2225 143.407 25.2225 142.343 25.5013C142.461 24.8449 142.58 24.2084 142.679 23.5122C142.709 23.0884 142.709 22.663 142.679 22.2391V12.91C142.83 11.2449 142.676 9.56622 142.224 7.95703Z" fill="#373435"/>
<path fill-rule="evenodd" clip-rule="evenodd" d="M195.407 38.9278C195.407 38.1719 195.565 37.3564 195.565 36.5607C195.565 34.2334 195.565 31.8862 195.565 29.539C195.565 28.803 195.466 28.067 195.407 27.3311C197.426 27.6694 199.486 27.6694 201.505 27.3311V29.0417C200.159 28.3256 198.694 28.8229 197.228 28.6439V32.483C198.558 32.6039 199.898 32.4895 201.188 32.1448V33.8754C199.89 33.5789 198.555 33.485 197.228 33.5969C197.228 34.7108 197.228 35.765 197.228 36.8392C197.254 37.055 197.353 37.2555 197.508 37.4074C197.663 37.5593 197.864 37.6536 198.08 37.6746C198.819 37.8001 199.569 37.8468 200.317 37.8139C200.935 37.7243 201.544 37.5846 202.139 37.3962C202 37.9332 201.862 38.53 201.723 39.0869C199.626 38.8461 197.513 38.7929 195.407 38.9278Z" fill="#0BA0DC"/>
<path fill-rule="evenodd" clip-rule="evenodd" d="M103.297 38.7884H101.317C101.574 35.0134 101.574 31.2252 101.317 27.4502C101.574 27.4502 101.911 27.4502 102.267 27.4502C102.624 27.4502 102.98 27.4502 103.277 27.4502C103.026 31.2256 103.033 35.0138 103.297 38.7884Z" fill="#0BA0DC"/>
<path fill-rule="evenodd" clip-rule="evenodd" d="M81.2 49.7292L79.22 44.7762C78.8834 46.4272 78.5468 48.0583 78.2102 49.7292H77.6558C77.9528 48.3766 78.23 47.0439 78.5072 45.7509L78.8042 44.3187C78.8042 44.1198 78.8042 43.901 79.1408 43.8811C79.4774 43.8612 79.5566 44.0204 79.6358 44.279L81.299 48.4761C81.3813 48.6796 81.4739 48.8787 81.5762 49.0728C81.794 48.0186 81.992 47.0837 82.1702 46.1488C82.3088 45.5321 82.4474 44.9155 82.5464 44.279C82.6454 43.6424 82.7642 43.8016 83.1404 43.9607C82.9622 44.816 82.8038 45.6714 82.6256 46.5267C82.4474 47.382 82.2494 48.3169 82.0712 49.212C81.8732 49.7889 81.8732 49.7889 81.2 49.7292Z" fill="#606062"/>
<path fill-rule="evenodd" clip-rule="evenodd" d="M184.259 49.0921C184.616 47.3018 184.972 45.6111 185.329 43.9004H185.843C185.428 45.8895 185.051 47.8787 184.655 49.7087C184.16 49.8877 183.923 49.7087 183.764 49.2512C183.269 47.8986 182.715 46.5659 182.18 45.2729C182.18 45.1138 182.062 44.9546 181.943 44.696L180.913 49.8082H180.359C180.755 47.819 181.171 45.8299 181.567 43.98C181.963 43.8606 182.2 43.98 182.359 44.3579C182.893 45.7901 183.467 47.1825 184.022 48.5948C184.081 48.6942 184.16 48.8335 184.259 49.0921Z" fill="#606062"/>
<path fill-rule="evenodd" clip-rule="evenodd" d="M99.3171 43.94C100.109 43.9002 100.902 43.9002 101.693 43.94C101.979 43.9476 102.252 44.0584 102.463 44.252C102.674 44.4457 102.808 44.7092 102.842 44.9943C102.923 45.3214 102.898 45.6662 102.77 45.9779C102.641 46.2895 102.417 46.5514 102.129 46.7248L101.733 46.9237C102.663 47.7194 101.951 48.7736 102.248 49.7085H101.614C101.614 49.3306 101.614 48.9328 101.614 48.5548C101.614 48.1769 101.614 48.1172 101.614 47.9183C101.614 47.3812 101.396 47.1425 100.881 47.1028C100.366 47.063 99.7329 47.1028 99.1389 47.1028C98.9607 47.978 98.7627 48.8333 98.5845 49.7085H98.0499C98.5053 47.7791 98.9211 45.8496 99.3171 43.94ZM99.3171 46.6453C99.8715 46.6453 100.386 46.6453 100.901 46.6453C101.189 46.6406 101.473 46.5727 101.733 46.4463C101.969 46.3268 102.155 46.128 102.26 45.8845C102.365 45.6409 102.382 45.3681 102.307 45.1136C102.307 44.676 101.911 44.4174 101.337 44.3975H99.7923C99.6141 45.1335 99.5151 45.8496 99.2973 46.5856L99.3171 46.6453Z" fill="#606062"/>
<path fill-rule="evenodd" clip-rule="evenodd" d="M127.235 46.964C127.439 47.1042 127.596 47.3019 127.688 47.5321C127.779 47.7622 127.801 48.0145 127.75 48.257C127.75 48.7543 127.75 49.2317 127.75 49.729H127.235V48.2769C127.235 47.342 127.077 47.1232 126.126 47.1033H124.78L124.206 49.7488H123.671C124.028 48.0581 124.364 46.4071 124.721 44.7362C124.899 43.861 124.899 43.861 125.79 43.8808H127.017C127.339 43.8734 127.653 43.9784 127.906 44.178C128.159 44.3776 128.335 44.6593 128.403 44.9749C128.5 45.3366 128.462 45.721 128.299 46.0574C128.135 46.3937 127.856 46.6592 127.512 46.8049L127.235 46.964ZM124.839 46.5861C125.414 46.5861 125.928 46.5861 126.423 46.5861C126.753 46.5589 127.075 46.4712 127.374 46.3275C127.579 46.1954 127.737 46 127.822 45.7705C127.908 45.541 127.917 45.2897 127.849 45.0544C127.812 44.8561 127.706 44.6775 127.55 44.5501C127.394 44.4227 127.198 44.3547 126.998 44.3582C126.443 44.3582 125.889 44.3582 125.315 44.3582C125.255 45.134 125.018 45.8501 124.839 46.5861Z" fill="#606062"/>
<path fill-rule="evenodd" clip-rule="evenodd" d="M121.295 46.2279C121.325 47.1729 121.031 48.0995 120.464 48.8536C120.185 49.2337 119.811 49.5332 119.38 49.7218C118.948 49.9104 118.475 49.9814 118.008 49.9277C117.483 49.9277 116.98 49.7181 116.608 49.3451C116.237 48.9721 116.028 48.4661 116.028 47.9385C115.92 47.3995 115.923 46.8437 116.039 46.3062C116.155 45.7687 116.381 45.2611 116.702 44.8156C117.002 44.3727 117.424 44.0264 117.915 43.8182C118.407 43.61 118.948 43.5488 119.474 43.642C119.954 43.7151 120.394 43.9534 120.719 44.3161C121.044 44.6789 121.234 45.1436 121.256 45.6311C121.28 45.8291 121.294 46.0284 121.295 46.2279ZM116.543 47.3816C116.536 47.5207 116.536 47.6602 116.543 47.7993C116.553 48.0959 116.637 48.3853 116.789 48.6401C116.94 48.8949 117.153 49.1069 117.409 49.2561C117.664 49.4052 117.953 49.4867 118.249 49.4929C118.544 49.499 118.836 49.4296 119.097 49.2912C119.477 49.1126 119.804 48.8385 120.048 48.4955C120.369 48.0507 120.585 47.5387 120.681 46.9979C120.777 46.457 120.75 45.9014 120.602 45.3725C120.543 45.0632 120.386 44.7814 120.154 44.5697C119.922 44.358 119.627 44.2279 119.315 44.1989C118.944 44.1279 118.56 44.1651 118.209 44.3061C117.859 44.4471 117.555 44.686 117.335 44.9946C116.752 45.6494 116.44 46.5034 116.464 47.3816H116.543Z" fill="#606062"/>
<path fill-rule="evenodd" clip-rule="evenodd" d="M159.628 43.8809C159.628 44.2589 159.509 44.3782 159.173 44.3583C158.499 44.3583 157.806 44.3583 157.193 44.3583C156.935 44.3583 156.816 44.3583 156.777 44.6965C156.777 45.2734 156.539 45.8502 156.401 46.4668H159.093V46.9442H156.638C156.341 46.9442 156.222 46.9442 156.163 47.3421C156.163 47.9786 155.906 48.635 155.767 49.3312H158.915C158.908 49.477 158.908 49.6231 158.915 49.7688H155.153C155.272 49.0925 155.411 48.456 155.549 47.7797C155.787 46.6061 156.024 45.4126 156.282 44.2191C156.282 44.0799 156.48 43.9008 156.599 43.9008C157.589 43.8611 158.598 43.8809 159.628 43.8809Z" fill="#606062"/>
<path fill-rule="evenodd" clip-rule="evenodd" d="M72.092 46.9239C71.9336 47.7196 71.7752 48.4953 71.597 49.3109H74.7254C74.7177 49.4566 74.7177 49.6027 74.7254 49.7485H70.9832C71.3792 47.7593 71.795 45.7702 72.191 43.9004H75.4382C75.4382 44.2187 75.4382 44.3778 75.062 44.3579H72.9632C72.7058 44.3579 72.6068 44.3579 72.5474 44.696C72.4484 45.2729 72.3296 45.8299 72.191 46.4465H74.8838C74.8965 46.6054 74.8965 46.765 74.8838 46.9239H72.092Z" fill="#606062"/>
<path fill-rule="evenodd" clip-rule="evenodd" d="M96.0303 43.8811C96.0303 44.0601 96.0303 44.1993 95.9115 44.3585H93.5751C93.2781 44.3585 93.1593 44.3585 93.0999 44.7364C93.0405 45.1143 92.8821 45.8702 92.7633 46.467H95.3769C95.5155 46.8449 95.3769 46.9444 95.0205 46.9444H93.0405C92.7831 46.9444 92.6841 46.9444 92.6445 47.2626C92.5257 47.9389 92.3673 48.6152 92.2287 49.2518H95.3175C95.3175 49.4109 95.3175 49.5501 95.3175 49.6894H91.5951C91.7139 49.033 91.8525 48.3765 91.9911 47.7002C92.2287 46.5067 92.4861 45.3132 92.7237 44.1198C92.7237 43.901 92.7237 43.7617 93.0801 43.7617L96.0303 43.8811Z" fill="#606062"/>
<path fill-rule="evenodd" clip-rule="evenodd" d="M0 12.7705L0.2376 12.9495L10.8504 24.4866C10.8504 24.4866 10.8504 24.606 11.0286 24.7054H10.6524H7.84082C7.69327 24.7101 7.54667 24.6802 7.41263 24.618C7.2786 24.5559 7.16081 24.4632 7.06862 24.3474L0.514802 16.9079L0.0990007 16.5101L0 12.7705Z" fill="#3E3E3E"/>
<path fill-rule="evenodd" clip-rule="evenodd" d="M29.4229 23.1738C31.9844 22.588 34.3821 21.4312 36.4385 19.7888C38.4948 18.1464 40.1573 16.0606 41.3029 13.6855H41.4019C44.373 15.2603 46.9779 17.4502 49.0447 20.1105C50.1801 21.5728 50.868 23.335 51.0247 25.1828C51.1658 26.2468 51.055 27.3291 50.7014 28.3419C50.3478 29.3547 49.7614 30.2694 48.9897 31.0117C48.218 31.754 47.2829 32.3029 46.2603 32.6139C45.2378 32.9248 44.1566 32.989 43.1047 32.8013L40.6891 32.4631C39.4791 32.319 38.2524 32.4819 37.1213 32.9372C35.9902 33.3924 34.9908 34.1253 34.2145 35.0689C32.9193 36.6034 31.8887 38.3447 31.1653 40.2208C30.0694 42.9314 29.1888 45.725 28.5319 48.5752L28.4131 48.993L25.5223 48.8139C25.6411 47.9984 25.7599 47.2226 25.8985 46.4469C26.4578 43.1169 27.4984 39.8869 28.9873 36.8591C30.2742 34.1009 32.3398 31.7836 34.9273 30.1955C36.369 29.3823 37.8879 28.716 39.4615 28.2063C40.4151 27.904 41.3478 27.5385 42.2533 27.1123C42.667 26.9225 43.003 26.5955 43.2049 26.1862C43.4068 25.7769 43.4623 25.3102 43.3621 24.8646C43.3485 24.5547 43.2378 24.2571 43.0458 24.0142C42.8538 23.7712 42.5903 23.5955 42.2929 23.512C41.4099 23.1672 40.4838 22.9463 39.5407 22.8555C37.5607 22.8555 35.6995 22.8555 33.7789 22.9749C32.3137 22.9948 30.8683 23.0942 29.4229 23.1738Z" fill="url(#paint0_linear_343_674)"/>
<path fill-rule="evenodd" clip-rule="evenodd" d="M5.30643 25.7793H33.4621V25.8986L33.1057 26.1572L29.3635 29.5189C29.2422 29.6422 29.0971 29.7394 28.937 29.8044C28.777 29.8694 28.6055 29.9008 28.4329 29.8968H21.5227V48.933C21.3907 48.8569 21.2649 48.7704 21.1465 48.6744C19.8595 47.6997 18.5923 46.6853 17.3053 45.7504C17.1948 45.6727 17.1059 45.568 17.047 45.4461C16.9881 45.3243 16.9611 45.1894 16.9687 45.0542C16.9687 40.2272 16.9687 35.3803 16.9687 30.5135V29.8769H10.2168C10.0112 29.8813 9.80971 29.8184 9.64264 29.6979L5.46483 25.9782C5.41592 25.9089 5.36303 25.8425 5.30643 25.7793Z" fill="url(#paint1_linear_343_674)"/>
<path d="M56.549 43.224C56.1103 41.4242 55.514 39.6669 54.767 37.9727C55.2608 39.2197 55.658 40.5032 55.955 41.8117C56.5383 43.8588 56.5996 46.0204 56.1332 48.0974C55.8125 49.4013 55.0833 50.5672 54.053 51.4232C53.0228 52.2791 51.746 52.7799 50.4109 52.8515C47.7111 53.0292 45.0057 52.6011 42.4909 51.5983C38.4722 50.1293 34.6693 48.1221 31.1851 45.6309L31.0069 45.4519L31.4623 44.5766H31.3633L29.9971 47.1426L30.1951 47.3217C33.9016 49.9814 37.9431 52.1353 42.2137 53.7267C44.903 54.7781 47.7886 55.2261 50.6684 55.0396C52.0874 54.9652 53.4449 54.4337 54.5397 53.5237C55.6346 52.6137 56.4085 51.3736 56.747 49.9871C57.2532 47.7524 57.1851 45.425 56.549 43.224Z" fill="#009CE6"/>
<path d="M51.6584 32.1846L51.8761 32.6421C52.589 34.1737 53.381 35.6656 53.9948 37.2171L53.678 36.322C53.0246 34.9495 52.3118 33.577 51.6584 32.1846Z" fill="#009CE6"/>
<path d="M31.1653 45.5918C34.6495 48.083 38.4524 50.0902 42.4711 51.5593C44.9859 52.5621 47.6913 52.9901 50.3911 52.8124C51.7262 52.7408 53.003 52.24 54.0332 51.3841C55.0635 50.5281 55.7927 49.3623 56.1134 48.0584C56.5795 45.9956 56.5251 43.8486 55.955 41.8124C55.6515 40.5033 55.2477 39.2198 54.7472 37.9734C53.8982 36.059 52.9327 34.199 51.8564 32.4037C51.8075 32.3113 51.7401 32.23 51.6584 32.165C52.3118 33.5574 53.0246 34.93 53.6384 36.3621L53.9552 37.2573V37.4363C55.0571 39.9357 55.5459 42.6643 55.3808 45.3929C55.3267 46.6505 54.8782 47.8587 54.0994 48.8448C53.3206 49.8309 52.2513 50.5442 51.0446 50.8829C49.983 51.1837 48.8778 51.2981 47.7775 51.2211C46.0385 51.1043 44.3216 50.7633 42.6691 50.2066C38.8327 48.8815 35.1953 47.0343 31.8583 44.7166L31.4425 44.5972L30.9871 45.4725L31.1653 45.5918Z" fill="#2CBAFD"/>
<path fill-rule="evenodd" clip-rule="evenodd" d="M11.4642 48.7538V35.1281H10.2762C10.195 35.1322 10.1139 35.1182 10.0386 35.0873C9.9633 35.0564 9.89571 35.0092 9.84062 34.9491C8.92982 33.7158 8.03882 32.4427 7.10822 31.1299H15.8598V45.0539C15.8745 45.1956 15.8509 45.3387 15.7917 45.4682C15.7325 45.5976 15.6398 45.7088 15.5232 45.7899L11.8602 48.4952L11.4642 48.7538Z" fill="url(#paint2_linear_343_674)"/>
<path d="M5.46482 14.9384C4.29804 12.1869 3.90097 9.16758 4.31642 6.20603C4.54658 4.80641 5.24857 3.52878 6.30476 2.58722C7.36095 1.64566 8.70717 1.09737 10.1178 1.03424C12.8148 0.841216 15.5207 1.25577 18.0379 2.24762C22.2132 3.80225 26.157 5.92382 29.7595 8.55323C25.7511 5.55277 21.3375 3.14154 16.6519 1.39229C13.984 0.339257 11.1159 -0.102453 8.25663 0.0993437C6.74868 0.166174 5.30957 0.752307 4.18102 1.75929C3.05247 2.76627 2.30325 4.13275 2.05921 5.62918C1.62083 8.78668 2.04516 12.0045 3.28682 14.9384C3.35186 15.0531 3.45812 15.1385 3.58382 15.1771H5.82122C5.74638 15.1715 5.67424 15.1466 5.6118 15.1048C5.54936 15.063 5.49873 15.0057 5.46482 14.9384Z" fill="#009CE6"/>
<path d="M5.44501 7.65868C5.4843 6.40683 5.91466 5.19913 6.67514 4.20666C7.43561 3.21419 8.48765 2.48726 9.68222 2.12884C10.4624 1.9047 11.267 1.77776 12.078 1.7509C14.2119 1.71649 16.3335 2.08072 18.3348 2.82504C22.2537 4.19473 25.9651 6.10251 29.3635 8.49412L29.9377 8.85216C29.9377 8.73282 29.9377 8.71293 29.9377 8.69304H29.8387C26.2362 6.06362 22.2924 3.94205 18.117 2.38743C15.5999 1.39557 12.894 0.98102 10.197 1.17404C8.78635 1.23718 7.44014 1.78547 6.38395 2.72703C5.32776 3.66859 4.62577 4.94622 4.39561 6.34584C3.98015 9.30738 4.37723 12.3267 5.54401 15.0782C5.57249 15.1321 5.61186 15.1794 5.65959 15.217C5.70733 15.2547 5.76238 15.282 5.82121 15.297H6.75181C6.75181 15.0185 6.61321 14.8594 6.55381 14.6804C5.70447 12.4421 5.3269 10.0511 5.44501 7.65868Z" fill="#2CBAFD"/>
<path fill-rule="evenodd" clip-rule="evenodd" d="M38.5309 12.7699C38.5308 13.6545 38.2685 14.5191 37.7776 15.2534C37.2867 15.9878 36.5892 16.5587 35.7742 16.8935C34.9591 17.2283 34.0633 17.3117 33.2009 17.1332C32.3385 16.9548 31.5484 16.5224 30.9314 15.8913C30.3144 15.2602 29.8984 14.4588 29.7363 13.5893C29.5742 12.7198 29.6734 11.8216 30.0213 11.0089C30.3691 10.1963 30.9499 9.50602 31.6896 9.02612C32.4293 8.54623 33.2945 8.29839 34.1749 8.31419C35.3374 8.33505 36.4453 8.81368 37.26 9.64704C38.0747 10.4804 38.5311 11.6018 38.5309 12.7699Z" fill="#3E3E3E"/>
<path fill-rule="evenodd" clip-rule="evenodd" d="M178.161 44.3579H175.389L174.973 46.4664H177.626C177.626 46.8244 177.626 46.9637 177.23 46.9438H174.854L174.379 49.291H177.448C177.448 49.5496 177.448 49.7684 177.171 49.7684H173.765C173.765 49.5496 173.765 49.3904 173.765 49.2313C174.142 47.461 174.498 45.6906 174.874 43.9004H178.161C178.22 44.0396 178.181 44.1789 178.161 44.3579Z" fill="#606062"/>
<path fill-rule="evenodd" clip-rule="evenodd" d="M136.145 46.4669H138.798C138.798 46.8249 138.798 46.9443 138.422 46.9443H136.046C135.888 47.72 135.729 48.4759 135.551 49.2914H138.64C138.64 49.5699 138.64 49.7688 138.343 49.7688H134.937C135.195 48.5157 135.432 47.3023 135.69 46.0889C135.828 45.4524 135.947 44.796 136.106 44.0998C136.126 44.0375 136.16 43.9805 136.204 43.9324C136.249 43.8844 136.303 43.8465 136.363 43.8213H139.432C139.443 43.9802 139.443 44.1397 139.432 44.2987H136.581C136.442 45.0546 136.304 45.7309 136.145 46.4669Z" fill="#606062"/>
<path fill-rule="evenodd" clip-rule="evenodd" d="M196.813 46.4664H199.486C199.475 46.6253 199.475 46.7848 199.486 46.9438H197.129C196.832 46.9438 196.714 46.9438 196.654 47.3416C196.555 47.9781 196.397 48.6147 196.258 49.3308H199.367C199.367 49.5098 199.367 49.6291 199.367 49.7684H195.704C195.922 48.7539 196.12 47.7792 196.318 46.7648C196.516 45.7503 196.674 45.1337 196.813 44.3181C196.813 44.0197 196.971 43.9004 197.288 43.9004H200.159C200.159 44.2584 200.159 44.3977 199.743 44.3778C199.05 44.3778 198.377 44.3778 197.763 44.3778C197.506 44.3778 197.407 44.3778 197.347 44.7159C197.07 45.2729 196.951 45.8498 196.813 46.4664Z" fill="#606062"/>
<path fill-rule="evenodd" clip-rule="evenodd" d="M68.6468 45.6312H68.1716C68.1661 45.3056 68.0519 44.9912 67.8472 44.7387C67.6425 44.4862 67.3593 44.3101 67.043 44.2388C66.6812 44.1569 66.3037 44.1787 65.9537 44.3018C65.6036 44.4249 65.295 44.6443 65.063 44.935C64.6817 45.3711 64.4178 45.898 64.2965 46.4655C64.1752 47.0331 64.2005 47.6224 64.37 48.1773C64.4375 48.511 64.6111 48.8136 64.8647 49.0396C65.1182 49.2656 65.438 49.4028 65.7758 49.4305C66.111 49.4939 66.4574 49.456 66.7712 49.3214C67.0849 49.1868 67.3518 48.9617 67.538 48.6746C67.666 48.4781 67.7785 48.272 67.8746 48.058H68.3102C68.1964 48.6158 67.8845 49.113 67.4328 49.457C66.9811 49.801 66.4204 49.9683 65.855 49.9278C65.284 49.9125 64.7409 49.6764 64.3388 49.2688C63.9368 48.8612 63.7068 48.3134 63.6968 47.7397C63.5665 46.6982 63.8511 45.6472 64.4888 44.8156C64.7715 44.4243 65.1549 44.1176 65.5979 43.9283C66.0408 43.7391 66.5267 43.6745 67.0034 43.7415C67.4692 43.7772 67.9024 43.9952 68.2098 44.3487C68.5172 44.7021 68.6741 45.1627 68.6468 45.6312Z" fill="#606062"/>
<path fill-rule="evenodd" clip-rule="evenodd" d="M152.46 48.0579C152.345 48.5996 152.044 49.0835 151.61 49.4251C151.175 49.7668 150.636 49.9446 150.084 49.9277C149.531 49.9404 148.992 49.7426 148.578 49.3738C148.163 49.0049 147.902 48.4923 147.847 47.9385C147.766 47.4128 147.791 46.876 147.92 46.3601C148.05 45.8442 148.28 45.3596 148.599 44.9349C148.915 44.4815 149.361 44.137 149.879 43.9483C150.396 43.7596 150.959 43.736 151.49 43.8806C151.884 43.9787 152.231 44.215 152.467 44.5469C152.703 44.8788 152.813 45.2845 152.777 45.6908H152.322C152.319 45.3614 152.203 45.0431 151.994 44.7895C151.785 44.5358 151.495 44.3624 151.173 44.2984C150.81 44.2187 150.431 44.2436 150.081 44.3703C149.731 44.4969 149.423 44.7202 149.193 45.0145C148.822 45.4601 148.566 45.9913 148.448 46.5605C148.331 47.1297 148.356 47.7193 148.52 48.2767C148.613 48.6262 148.815 48.9365 149.097 49.1621C149.378 49.3877 149.725 49.5166 150.084 49.5298C150.457 49.5362 150.823 49.4369 151.142 49.2433C151.461 49.0498 151.719 48.7699 151.886 48.4358C152.025 48.0181 152.025 48.0181 152.46 48.0579Z" fill="#606062"/>
<path fill-rule="evenodd" clip-rule="evenodd" d="M192.932 48.0782C192.807 48.606 192.508 49.0758 192.084 49.4116C191.66 49.7474 191.135 49.9294 190.595 49.9281C190.033 49.9516 189.482 49.759 189.056 49.3896C188.629 49.0202 188.358 48.5016 188.299 47.939C188.149 46.8683 188.426 45.7815 189.071 44.9155C189.365 44.4912 189.778 44.1644 190.257 43.9767C190.737 43.7889 191.261 43.7488 191.764 43.8612C192.199 43.9208 192.596 44.1457 192.872 44.4896C193.148 44.8336 193.283 45.2706 193.249 45.7111H192.833C192.417 44.5375 191.962 44.1397 191.011 44.2988C190.556 44.3823 190.131 44.5886 189.784 44.8956C189.341 45.3394 189.032 45.8995 188.892 46.5117C188.752 47.1239 188.786 47.7633 188.992 48.3567C189.084 48.6997 189.289 49.0017 189.572 49.2144C189.856 49.4271 190.202 49.5383 190.556 49.5303C190.922 49.5616 191.289 49.4743 191.603 49.281C191.916 49.0877 192.16 48.7986 192.298 48.4562C192.437 48.0782 192.575 47.939 192.932 48.0782Z" fill="#606062"/>
<path fill-rule="evenodd" clip-rule="evenodd" d="M145.788 43.9404C145.194 44.7758 144.62 45.5914 144.006 46.3671C143.914 46.4752 143.863 46.6128 143.863 46.755C143.863 46.8973 143.914 47.0348 144.006 47.1429C144.461 47.9783 144.877 48.8536 145.293 49.7089C144.917 49.8481 144.738 49.7089 144.58 49.3906C144.243 48.6547 143.867 47.9585 143.491 47.1827C142.956 47.9585 142.442 48.6547 141.966 49.3906C141.889 49.5457 141.756 49.6652 141.594 49.7244C141.432 49.7836 141.253 49.7781 141.095 49.7089C141.749 48.8138 142.362 47.9187 143.075 47.0434C143.167 46.9354 143.218 46.7978 143.218 46.6556C143.218 46.5133 143.167 46.3758 143.075 46.2677C142.679 45.5118 142.303 44.736 141.907 43.9404C142.263 43.8011 142.461 43.9404 142.62 44.2189C142.778 44.4973 143.214 45.4919 143.57 46.208L144.639 44.7161C144.758 44.5371 144.917 44.3581 145.035 44.1592C145.154 43.9603 145.412 43.821 145.788 43.9404Z" fill="#606062"/>
<path fill-rule="evenodd" clip-rule="evenodd" d="M113.751 43.8809C113.751 44.0798 113.751 44.1991 113.751 44.3583H111.059C110.92 45.0744 110.781 45.7507 110.623 46.4668H113.078C113.078 46.8447 113.078 46.9442 112.662 46.9442H110.821C110.742 46.9609 110.668 46.9968 110.606 47.0488C110.544 47.1008 110.495 47.1673 110.465 47.2425C110.267 48.0581 110.108 48.8935 109.93 49.7489H109.415C109.732 48.2172 110.049 46.7253 110.346 45.2335C110.346 44.8754 110.484 44.5174 110.583 44.1593C110.613 44.0924 110.656 44.0327 110.711 43.9846C110.766 43.9365 110.83 43.901 110.9 43.8809H113.751Z" fill="#606062"/>
<path fill-rule="evenodd" clip-rule="evenodd" d="M87.0015 49.7485H86.4668C86.8431 47.9583 87.1995 46.1879 87.5955 44.3579H85.8728V44.2584C85.8728 44.1192 86.0708 43.9004 86.1896 43.9004C87.3975 43.9004 88.6251 43.9004 89.8527 43.9004C89.8527 44.2783 89.8527 44.3977 89.4369 44.3778C89.0211 44.3579 88.6449 44.3778 88.2291 44.3778C87.7539 46.168 87.3777 47.9384 87.0015 49.7485Z" fill="#606062"/>
<path fill-rule="evenodd" clip-rule="evenodd" d="M168.419 49.2715H171.35C171.35 49.5699 171.35 49.7688 171.033 49.7688H167.766C167.944 48.8538 168.122 47.9985 168.3 47.1233C168.479 46.248 168.736 45.1341 168.895 44.2788C168.895 43.9008 169.132 43.8014 169.528 43.9207C169.152 45.6911 168.815 47.4614 168.419 49.2715Z" fill="#606062"/>
<path fill-rule="evenodd" clip-rule="evenodd" d="M162.42 49.2717H165.37C165.37 49.5303 165.37 49.769 165.073 49.769H161.747L162.4 46.5863C162.558 45.7907 162.756 44.995 162.895 44.1795C162.895 43.8214 163.113 43.722 163.509 43.8612C163.152 45.6912 162.875 47.4417 162.42 49.2717Z" fill="#606062"/>
</g>
<defs>
<linearGradient id="paint0_linear_343_674" x1="47.7379" y1="18.559" x2="21.4814" y2="44.6948" gradientUnits="userSpaceOnUse">
<stop stop-color="#2CB2F0"/>
<stop offset="1" stop-color="#076C9C"/>
</linearGradient>
<linearGradient id="paint1_linear_343_674" x1="19.4239" y1="48.9131" x2="19.4239" y2="25.7793" gradientUnits="userSpaceOnUse">
<stop/>
<stop offset="1" stop-color="#3E3E3E"/>
</linearGradient>
<linearGradient id="paint2_linear_343_674" x1="177.322" y1="963.785" x2="99.5126" y2="1002.44" gradientUnits="userSpaceOnUse">
<stop stop-color="#2CB2F0"/>
<stop offset="1" stop-color="#076C9C"/>
</linearGradient>
<clipPath id="clip0_343_674">
<rect width="204" height="55" fill="white"/>
</clipPath>
</defs>
</svg>
